<svg width="20" height="20" viewBox="0 0 20 20" fill="none" xmlns="http://www.w3.org/2000/svg">
<path fill-rule="evenodd" clip-rule="evenodd" d="M0.000117118 10C0.000117118 4.477 4.47712 0 10.0001 0C15.5231 0 20.0001 4.477 20.0001 10C20.0001 15.523 15.5231 20 10.0001 20C8.27013 20.0026 6.5693 19.5546 5.06512 18.7L1.31612 19.949C1.13992 20.0078 0.950842 20.0163 0.770072 19.9736C0.589301 19.931 0.423984 19.8388 0.292649 19.7075C0.161314 19.5761 0.0691514 19.4108 0.0264907 19.23C-0.0161699 19.0493 -0.00764237 18.8602 0.0511172 18.684L1.30112 14.935C0.446157 13.4309 -0.00223316 11.7301 0.000117118 10ZM6.00012 5C5.7349 5 5.48055 5.10536 5.29301 5.29289C5.10547 5.48043 5.00012 5.73478 5.00012 6C5.00012 6.26522 5.10547 6.51957 5.29301 6.70711C5.48055 6.89464 5.7349 7 6.00012 7H14.0001C14.2653 7 14.5197 6.89464 14.7072 6.70711C14.8948 6.51957 15.0001 6.26522 15.0001 6C15.0001 5.73478 14.8948 5.48043 14.7072 5.29289C14.5197 5.10536 14.2653 5 14.0001 5H6.00012ZM6.00012 9C5.7349 9 5.48055 9.10536 5.29301 9.29289C5.10547 9.48043 5.00012 9.73478 5.00012 10C5.00012 10.2652 5.10547 10.5196 5.29301 10.7071C5.48055 10.8946 5.7349 11 6.00012 11H14.0001C14.2653 11 14.5197 10.8946 14.7072 10.7071C14.8948 10.5196 15.0001 10.2652 15.0001 10C15.0001 9.73478 14.8948 9.48043 14.7072 9.29289C14.5197 9.10536 14.2653 9 14.0001 9H6.00012ZM6.00012 13C5.7349 13 5.48055 13.1054 5.29301 13.2929C5.10547 13.4804 5.00012 13.7348 5.00012 14C5.00012 14.2652 5.10547 14.5196 5.29301 14.7071C5.48055 14.8946 5.7349 15 6.00012 15H9.00012C9.26533 15 9.51969 14.8946 9.70722 14.7071C9.89476 14.5196 10.0001 14.2652 10.0001 14C10.0001 13.7348 9.89476 13.4804 9.70722 13.2929C9.51969 13.1054 9.26533 13 9.00012 13H6.00012Z" fill="white"/>
</svg>
