<svg width="36" height="36" viewBox="0 0 36 36" fill="none" xmlns="http://www.w3.org/2000/svg">
<g clip-path="url(#clip0_181_382)">
<path d="M35.5 18C35.5 8.33502 27.665 0.5 18 0.5C8.33502 0.5 0.5 8.33502 0.5 18C0.5 27.665 8.33502 35.5 18 35.5C27.665 35.5 35.5 27.665 35.5 18Z" fill="white"/>
<path d="M24 24.667H12C11.7267 24.667 11.5 24.4403 11.5 24.167C11.5 23.8937 11.7267 23.667 12 23.667H24C24.2733 23.667 24.5 23.8937 24.5 24.167C24.5 24.4403 24.2733 24.667 24 24.667Z" fill="#97CB66"/>
<path d="M22.6804 12.3204C21.387 11.0271 20.1204 10.9938 18.7937 12.3204L17.987 13.1271C17.9204 13.1938 17.8937 13.3004 17.9204 13.3938C18.427 15.1604 19.8404 16.5738 21.607 17.0804C21.6337 17.0871 21.6604 17.0938 21.687 17.0938C21.7604 17.0938 21.827 17.0671 21.8804 17.0138L22.6804 16.2071C23.3404 15.5538 23.6604 14.9204 23.6604 14.2804C23.667 13.6204 23.347 12.9804 22.6804 12.3204Z" fill="#97CB66"/>
<path d="M20.4075 17.6865C20.2141 17.5932 20.0275 17.4999 19.8475 17.3932C19.7008 17.3065 19.5608 17.2132 19.4208 17.1132C19.3075 17.0399 19.1741 16.9332 19.0475 16.8265C19.0341 16.8199 18.9875 16.7799 18.9341 16.7265C18.7141 16.5399 18.4675 16.2999 18.2475 16.0332C18.2275 16.0199 18.1941 15.9732 18.1475 15.9132C18.0808 15.8332 17.9675 15.6999 17.8675 15.5465C17.7875 15.4465 17.6941 15.2999 17.6075 15.1532C17.5008 14.9732 17.4075 14.7932 17.3141 14.6065C17.1917 14.3443 16.8476 14.2664 16.643 14.471L12.8941 18.2199C12.8075 18.3065 12.7275 18.4732 12.7075 18.5865L12.3475 21.1399C12.2808 21.5932 12.4075 22.0199 12.6875 22.3065C12.9275 22.5399 13.2608 22.6665 13.6208 22.6665C13.7008 22.6665 13.7808 22.6599 13.8608 22.6465L16.4208 22.2865C16.5408 22.2665 16.7075 22.1865 16.7875 22.0999L20.5425 18.3448C20.743 18.1443 20.6677 17.7993 20.4075 17.6865Z" fill="#97CB66"/>
<path d="M35.5 18C35.5 8.33502 27.665 0.5 18 0.5C8.33502 0.5 0.5 8.33502 0.5 18C0.5 27.665 8.33502 35.5 18 35.5C27.665 35.5 35.5 27.665 35.5 18Z" stroke="#F7F7F7"/>
</g>
<defs>
<clipPath id="clip0_181_382">
<rect width="36" height="36" fill="white"/>
</clipPath>
</defs>
</svg>
