<svg width="158" height="134" viewBox="0 0 158 134" fill="none" xmlns="http://www.w3.org/2000/svg">
<g clip-path="url(#clip0_1956_6583)">
<path d="M3.12138 120.403V131.509H9.40968C9.91091 131.509 10.2982 131.63 10.564 131.872C10.8298 132.114 10.9665 132.417 10.9665 132.788C10.9665 133.167 10.8374 133.47 10.5716 133.697C10.3058 133.931 9.91851 134.045 9.40968 134.045H1.92146C1.24555 134.045 0.759486 133.894 0.4633 133.598C0.167113 133.303 0.0228271 132.818 0.0228271 132.152V120.395C0.0228271 119.774 0.167121 119.305 0.448119 118.987C0.729116 118.677 1.10124 118.518 1.55691 118.518C2.02018 118.518 2.39992 118.669 2.68851 118.979C2.97711 119.297 3.12138 119.767 3.12138 120.403Z" fill="black"/>
<path d="M31.7376 132.319L31.0085 130.404H24.781L24.0519 132.357C23.7633 133.122 23.5203 133.637 23.3229 133.902C23.1178 134.167 22.7913 134.303 22.328 134.303C21.9407 134.303 21.5913 134.159 21.2951 133.879C20.9989 133.591 20.847 133.273 20.847 132.91C20.847 132.705 20.885 132.486 20.9534 132.266C21.0217 132.047 21.1356 131.736 21.2951 131.343L25.2139 121.433C25.3278 121.145 25.4569 120.804 25.6164 120.411C25.7759 120.009 25.943 119.684 26.1177 119.419C26.2923 119.154 26.5277 118.942 26.8163 118.775C27.1049 118.609 27.4618 118.533 27.8871 118.533C28.32 118.533 28.677 118.616 28.9656 118.775C29.2542 118.934 29.4896 119.146 29.6643 119.404C29.839 119.661 29.9909 119.934 30.1124 120.229C30.2339 120.524 30.3858 120.918 30.5756 121.41L34.578 131.259C34.8893 132.009 35.0488 132.554 35.0488 132.895C35.0488 133.25 34.9045 133.576 34.6083 133.871C34.3121 134.167 33.9552 134.31 33.5375 134.31C33.2944 134.31 33.0818 134.265 32.9148 134.182C32.7401 134.098 32.5958 133.977 32.4743 133.826C32.3528 133.674 32.2312 133.447 32.0945 133.137C31.9578 132.827 31.8287 132.554 31.7376 132.319ZM25.5936 128.087H30.1655L27.8568 121.789L25.5936 128.087Z" fill="black"/>
<path d="M46.2811 127.739V120.395C46.2811 119.774 46.4254 119.305 46.7064 118.987C46.9874 118.677 47.3596 118.518 47.8152 118.518C48.2937 118.518 48.6734 118.677 48.962 118.987C49.243 119.297 49.3873 119.767 49.3873 120.395V127.905C49.3873 128.761 49.486 129.472 49.6759 130.048C49.8657 130.623 50.2075 131.062 50.6935 131.38C51.1796 131.698 51.8631 131.857 52.7441 131.857C53.9592 131.857 54.8098 131.539 55.311 130.896C55.8123 130.252 56.0629 129.283 56.0629 127.973V120.403C56.0629 119.774 56.1996 119.297 56.4806 118.995C56.7616 118.684 57.1337 118.533 57.597 118.533C58.0603 118.533 58.44 118.684 58.7286 118.995C59.0172 119.305 59.1615 119.774 59.1615 120.403V127.746C59.1615 128.942 59.0475 129.934 58.8121 130.737C58.5767 131.531 58.1362 132.236 57.4907 132.841C56.9363 133.356 56.2831 133.727 55.5465 133.969C54.8098 134.204 53.944 134.325 52.9567 134.325C51.7795 134.325 50.7695 134.196 49.9189 133.947C49.0683 133.697 48.3772 133.303 47.838 132.773C47.2988 132.243 46.9115 131.562 46.6609 130.729C46.4102 129.896 46.2811 128.889 46.2811 127.739Z" fill="black"/>
<path d="M75.4972 120.38L81.4589 129.374V120.297C81.4589 119.707 81.588 119.268 81.8386 118.972C82.0893 118.677 82.4386 118.533 82.8639 118.533C83.312 118.533 83.6613 118.677 83.9195 118.972C84.1778 119.268 84.3069 119.707 84.3069 120.297V132.297C84.3069 133.637 83.7525 134.303 82.6361 134.303C82.3551 134.303 82.1045 134.265 81.8842 134.182C81.664 134.098 81.4513 133.977 81.2615 133.803C81.064 133.629 80.8818 133.425 80.7147 133.197C80.5476 132.963 80.3805 132.728 80.2134 132.486L74.396 123.598V132.539C74.396 133.122 74.2593 133.561 73.9859 133.864C73.7125 134.159 73.3631 134.31 72.9378 134.31C72.4974 134.31 72.148 134.159 71.8822 133.856C71.6164 133.553 71.4873 133.114 71.4873 132.539V120.767C71.4873 120.267 71.5404 119.873 71.6544 119.593C71.7835 119.283 72.0037 119.025 72.3151 118.828C72.6189 118.632 72.9531 118.533 73.31 118.533C73.591 118.533 73.8264 118.579 74.0239 118.669C74.2213 118.76 74.396 118.881 74.5479 119.033C74.6998 119.184 74.8517 119.381 75.0036 119.623C75.1631 119.866 75.3301 120.115 75.4972 120.38Z" fill="black"/>
<path d="M98.5619 118.79H102.602C103.65 118.79 104.554 118.888 105.306 119.078C106.058 119.267 106.741 119.638 107.356 120.168C108.951 121.531 109.749 123.597 109.749 126.376C109.749 127.292 109.665 128.132 109.506 128.882C109.346 129.631 109.095 130.32 108.761 130.926C108.427 131.531 108.002 132.076 107.478 132.553C107.068 132.924 106.62 133.22 106.134 133.439C105.648 133.659 105.124 133.818 104.562 133.909C104 133.999 103.369 134.045 102.663 134.045H98.6226C98.0606 134.045 97.6353 133.962 97.3467 133.787C97.0581 133.613 96.8759 133.379 96.7847 133.068C96.7012 132.758 96.6556 132.357 96.6556 131.864V120.675C96.6556 120.009 96.8075 119.524 97.1037 119.229C97.4151 118.934 97.8936 118.79 98.5619 118.79ZM99.7618 121.235V131.592H102.109C102.625 131.592 103.027 131.577 103.324 131.547C103.62 131.516 103.916 131.448 104.235 131.342C104.554 131.236 104.82 131.077 105.048 130.873C106.088 129.995 106.604 128.496 106.604 126.353C106.604 124.847 106.377 123.719 105.921 122.969C105.465 122.22 104.903 121.743 104.235 121.538C103.567 121.334 102.762 121.228 101.812 121.228H99.7618V121.235Z" fill="black"/>
<path d="M125.583 127.519H124.497V132.425C124.497 133.068 124.353 133.545 124.072 133.848C123.783 134.151 123.411 134.31 122.955 134.31C122.462 134.31 122.075 134.151 121.809 133.833C121.535 133.515 121.399 133.046 121.399 132.425V120.683C121.399 120.016 121.55 119.532 121.847 119.237C122.143 118.941 122.629 118.79 123.297 118.79H128.34C129.039 118.79 129.631 118.82 130.125 118.881C130.618 118.941 131.066 119.063 131.461 119.237C131.94 119.441 132.365 119.729 132.737 120.1C133.109 120.471 133.383 120.91 133.58 121.409C133.77 121.909 133.869 122.432 133.869 122.984C133.869 124.12 133.55 125.028 132.904 125.71C132.259 126.391 131.287 126.875 129.973 127.156C130.52 127.443 131.051 127.875 131.552 128.45C132.054 129.018 132.502 129.624 132.897 130.267C133.292 130.911 133.595 131.486 133.816 132.008C134.036 132.523 134.142 132.879 134.142 133.076C134.142 133.28 134.081 133.477 133.952 133.674C133.823 133.871 133.649 134.03 133.421 134.143C133.2 134.257 132.942 134.317 132.646 134.317C132.297 134.317 132.008 134.234 131.773 134.075C131.537 133.916 131.332 133.704 131.165 133.454C130.998 133.204 130.763 132.834 130.466 132.349L129.221 130.29C128.773 129.533 128.378 128.957 128.021 128.564C127.664 128.17 127.315 127.897 126.95 127.754C126.586 127.61 126.13 127.519 125.583 127.519ZM127.36 121.107H124.497V125.301H127.277C128.021 125.301 128.651 125.24 129.153 125.112C129.661 124.983 130.049 124.763 130.315 124.453C130.58 124.142 130.717 123.719 130.717 123.181C130.717 122.757 130.611 122.386 130.39 122.061C130.178 121.735 129.874 121.5 129.494 121.334C129.137 121.182 128.424 121.107 127.36 121.107Z" fill="black"/>
<path d="M149.157 132.425V127.587L145.42 121.811C145.094 121.289 144.858 120.887 144.729 120.592C144.6 120.297 144.524 120.047 144.524 119.835C144.524 119.479 144.661 119.176 144.934 118.919C145.207 118.662 145.549 118.533 145.952 118.533C146.377 118.533 146.696 118.654 146.916 118.889C147.136 119.131 147.463 119.608 147.903 120.32L150.767 124.953L153.66 120.32C153.835 120.032 153.979 119.797 154.101 119.6C154.222 119.404 154.351 119.222 154.496 119.055C154.64 118.889 154.799 118.753 154.974 118.662C155.149 118.571 155.361 118.525 155.612 118.525C155.999 118.525 156.326 118.654 156.592 118.904C156.857 119.154 156.987 119.449 156.987 119.782C156.987 120.055 156.918 120.32 156.789 120.592C156.66 120.865 156.432 121.236 156.113 121.72L152.278 127.58V132.417C152.278 133.046 152.134 133.523 151.837 133.833C151.549 134.144 151.169 134.303 150.721 134.303C150.258 134.303 149.886 134.151 149.605 133.841C149.293 133.538 149.157 133.061 149.157 132.425Z" fill="black"/>
<path d="M82.1197 0.900606C55.5768 4.65563 37.5474 13.7934 28.5327 31.5313C46.3646 7.02523 100.339 -11.4395 113.045 22.8857C100.916 -1.87781 53.944 11.5298 36.5753 35.1198C25.3885 48.4971 23.3456 62.4498 25.4114 76.6598C18.956 62.0637 15.4929 46.8391 25.4114 28.7832C36.6361 5.28399 61.7132 -1.97623 82.1197 0.900606Z" fill="#8ECA74"/>
<path d="M102.731 96.0635C97.9543 98.5542 92.8584 100.538 87.5802 101.916L87.0865 102.052L86.5853 102.165L85.5828 102.393L83.5779 102.832C83.4108 102.869 83.2437 102.907 83.0766 102.938L82.5678 103.021L81.5501 103.187L79.5224 103.513C79.1882 103.574 78.8465 103.604 78.5047 103.634L77.4795 103.732L75.4289 103.929C74.0619 104.005 72.6873 104.043 71.3127 104.096C69.9381 104.066 68.5635 104.02 67.1965 103.975L65.146 103.793L64.1207 103.702C63.7789 103.664 63.4372 103.649 63.0954 103.596L61.0601 103.278L60.0424 103.119C59.7083 103.066 59.3665 103.021 59.0323 102.945C57.6957 102.65 56.3515 102.385 55.0301 102.044C49.7367 100.674 44.6559 98.6451 39.9321 96.0635C44.9369 98.1151 50.0556 99.8185 55.311 100.969C55.6376 101.053 55.9642 101.113 56.2983 101.174L57.2932 101.355L59.2754 101.726C59.6019 101.794 59.9361 101.832 60.2702 101.878L61.2727 102.006L63.2701 102.264C64.6067 102.385 65.9434 102.483 67.2876 102.589L71.3127 102.673C72.657 102.627 73.9936 102.604 75.3378 102.544C76.6744 102.423 78.0111 102.324 79.3477 102.181L81.3451 101.908L82.3475 101.772L82.8488 101.704C83.0159 101.681 83.1753 101.643 83.3424 101.613L85.3246 101.234L86.3195 101.053L86.8131 100.962L87.3068 100.848C92.547 99.6898 97.6885 98.0243 102.731 96.0635Z" fill="#8ECA74"/>
<path d="M143.666 61.6779C143.574 61.5341 143.483 61.3978 143.392 61.2616C143.445 61.2616 143.499 61.2616 143.552 61.254C143.552 61.254 143.491 61.1858 143.392 61.0571C143.392 61.095 143.4 61.1253 143.392 61.1631C143.392 61.1329 143.392 61.095 143.392 61.0571C143.271 60.9057 143.066 60.6711 142.83 60.3834C140.461 56.7116 138.175 53.2821 136.026 51.3516C135.752 51.0336 135.426 50.7384 135.061 50.4583C135.076 50.4431 135.099 50.428 135.099 50.4128H135.107C135.107 50.4128 135.099 50.4128 135.099 50.4053C135.099 50.3901 135.084 50.3826 135.084 50.3826C135.084 50.3826 134.947 50.322 134.727 50.2236C134.423 50.0192 134.089 49.8526 133.717 49.7012C131.606 48.4823 129.373 46.7032 127.36 47.0515C126.897 47.1348 126.502 47.2408 126.137 47.3619C125.515 47.4527 124.991 47.6723 124.588 48.0659C124.565 48.0811 124.543 48.0962 124.52 48.1114C124.55 47.9827 124.558 47.854 124.588 47.7253C124.755 47.0061 124.96 46.302 125.203 45.5979C125.446 44.9014 125.727 44.2125 126.039 43.5387C126.677 42.1987 127.467 40.9269 128.446 39.7913C129.312 38.7919 130.33 37.9213 131.438 37.1794C131.438 37.1794 131.438 37.187 131.446 37.187C133.724 36.9144 135.464 36.1952 136.671 35.0293C137.993 34.7492 139.344 34.5903 140.704 34.5751C139.382 34.5751 138.053 34.7038 136.755 34.9536C138.19 33.5001 138.813 31.3652 138.433 28.3899C137.871 25.1724 136.193 21.5006 134.188 17.7002C134.188 17.7002 132.388 21.4174 130.793 24.8014C129.631 23.9535 121.717 19.6004 121.717 20.0092C121.717 21.0161 122.834 30.0479 124.793 33.4319C126.76 36.816 131.051 37.187 131.051 37.187C130.998 37.0128 130.945 36.8463 130.892 36.6798C131.051 36.8539 131.188 36.975 131.317 37.081C130.193 37.8078 129.153 38.6708 128.272 39.655C127.261 40.7982 126.434 42.0776 125.765 43.4252C125.431 44.0989 125.143 44.7955 124.884 45.4995C124.831 45.6585 124.793 45.8175 124.74 45.9765C124.581 43.6826 121.763 42.2517 116.728 41.4341C118.368 45.8251 120.145 49.845 124.079 48.4218C124.079 48.4293 124.072 48.4445 124.072 48.4521C123.927 48.5732 123.859 48.6413 123.859 48.6413C123.859 48.6413 123.92 48.664 124.019 48.7019C123.996 48.7322 123.965 48.7549 123.943 48.7852C123.806 48.982 123.798 49.2091 123.874 49.4514C123.852 49.5877 123.814 49.7164 123.798 49.8526C123.692 50.5945 123.609 51.344 123.624 52.1011C123.624 52.8582 123.715 53.6077 123.821 54.342C123.927 55.0839 124.057 55.8107 124.178 56.5451C124.429 58.0062 124.664 59.4673 124.816 60.936C124.968 62.4047 125.044 63.8734 125.044 65.3421C125.036 65.7131 125.044 66.0765 125.029 66.4474L124.983 67.5527C124.938 68.272 124.831 68.976 124.641 69.6801C124.284 71.0882 123.738 72.4661 123.138 73.8136C122.53 75.1612 121.847 76.4861 121.133 77.7882C119.697 80.3925 118.11 82.9362 116.462 85.427C114.806 87.9177 113.075 90.3782 111.283 92.7629L112.285 93.4518C114.07 90.999 115.756 88.5082 117.381 85.9721C118.999 83.4359 120.556 80.8467 121.96 78.1895C122.667 76.857 123.327 75.5095 123.927 74.124C124.52 72.7386 125.051 71.3229 125.401 69.8391C125.591 69.1047 125.689 68.3325 125.72 67.5755L125.75 66.455C125.758 66.084 125.743 65.7055 125.743 65.3345C125.72 63.8431 125.613 62.3517 125.431 60.8679C125.249 59.384 124.991 57.9153 124.717 56.4542C124.581 55.7274 124.436 54.9931 124.322 54.2663C124.208 53.5395 124.11 52.8127 124.095 52.0859C124.072 51.4046 124.133 50.7157 124.216 50.0267C124.254 50.0722 124.307 50.1176 124.345 50.163C124.694 51.3819 125.386 52.0708 126.343 52.3509C126.099 54.1452 126.973 56.0454 126.973 56.0454C126.973 56.0454 127.755 57.6049 130.337 59.0282C131.044 59.4673 131.788 59.8458 132.593 60.1108C135.858 61.201 139.709 61.5038 143.666 61.6779ZM128.469 29.9722C128.484 29.9873 128.507 30.0252 128.507 30.0252L128.606 29.8056C128.575 29.904 128.553 30.0024 128.53 30.1084C128.507 30.063 128.484 30.0176 128.469 29.9722Z" fill="#8ECA74"/>
<path d="M51.8022 38.7545C51.8022 34.3257 51.8022 29.9045 51.8022 25.4757C51.8022 24.0221 52.0604 23.7723 53.6173 23.7723C58.8575 23.7647 64.0978 23.7647 69.338 23.7723C70.8645 23.7723 71.0999 24.0675 71.0923 25.7936C71.0847 27.4213 70.8493 27.6787 69.3304 27.6787C65.4951 27.6863 61.6599 27.7014 57.8247 27.6636C57.0273 27.656 56.7539 27.8604 56.7767 28.6478C56.8298 30.8584 56.8298 33.0766 56.7767 35.2872C56.7615 36.067 57.0045 36.3017 57.8247 36.2941C60.7106 36.2487 63.5965 36.2714 66.49 36.279C68.0241 36.2865 68.1836 36.4758 68.1912 38.1868C68.1988 40.0037 68.0393 40.2005 66.4824 40.2081C63.5965 40.2157 60.703 40.2384 57.8171 40.193C56.9893 40.1778 56.7691 40.4428 56.7767 41.2074C56.8222 43.736 56.8222 46.2646 56.7767 48.7932C56.7615 49.6184 57.0196 49.8758 57.8854 49.8682C61.7662 49.8304 65.6394 49.8455 69.5202 49.8531C71.1607 49.8531 71.3429 50.0499 71.3429 51.776C71.3429 53.5021 71.1303 53.7595 69.5583 53.7595C64.2345 53.7671 58.9183 53.7671 53.5945 53.7595C52.0756 53.7595 51.8174 53.4945 51.8174 52.0258C51.8022 47.6046 51.8022 43.1834 51.8022 38.7545Z" fill="#2C2F31"/>
<path d="M104.06 50.7614C102.078 52.7827 99.8757 53.888 97.2101 54.1303C94.0052 54.418 91.1573 52.9947 90.2079 50.5645C89.0763 47.6574 90.17 44.3642 92.9116 42.6381C95.5241 40.9877 98.5011 40.6319 101.531 40.541C103.643 40.4804 104.03 39.9278 103.187 38.0124C102.754 37.0282 101.964 36.4453 100.886 36.2182C98.4176 35.7034 96.0557 36.0895 93.7622 37.0131C92.9192 37.3538 92.0914 37.8837 91.4762 36.6951C90.8231 35.4309 91.0737 34.159 92.1825 33.5836C92.7217 33.3035 93.3141 33.1067 93.9065 32.9628C96.4886 32.342 99.1087 32.1376 101.759 32.4329C105.883 32.8871 108.123 35.3551 108.199 39.7612C108.275 43.9856 108.215 48.2101 108.23 52.4345C108.23 53.1385 108.108 53.6685 107.227 53.7896C105.61 54.0091 104.782 53.7518 104.516 52.8357C104.372 52.2452 104.258 51.6244 104.06 50.7614ZM103.521 45.1743C103.27 44.7503 104.015 43.7283 103.027 43.698C100.521 43.6223 97.9695 43.7207 95.8279 45.2348C94.7342 46.007 94.4001 47.1502 94.7494 48.4069C95.0988 49.6636 96.1013 50.2617 97.3696 50.4282C100.499 50.8446 103.514 48.3009 103.521 45.1743Z" fill="#2C2F31"/>
<path d="M79.7957 52.0481C81.6564 48.8836 82.6513 45.5146 83.1525 42.0094C83.3728 40.4953 83.4487 38.9585 83.593 37.4292C83.6082 37.2551 83.5778 37.0431 83.6689 36.922C84.5499 35.8015 85.803 36.3693 86.9042 36.3315C87.7244 36.3012 87.8687 36.8993 87.8611 37.5655C87.8308 40.3742 87.3067 43.1148 86.4258 45.7796C84.4284 51.8058 81.2463 57.1961 76.8035 61.8899C76.4162 62.2987 75.9909 62.7 75.5352 63.0331C74.3505 63.9037 73.2644 63.7674 72.2771 62.6772C71.2823 61.5795 71.343 60.8679 72.5581 59.9897C74.2821 58.7405 75.8238 57.3324 77.2288 55.7577C77.7832 55.1369 77.8591 54.7432 77.282 54.024C73.4088 49.2394 71.5861 43.7431 71.381 37.7245C71.343 36.5283 71.5633 36.339 72.8088 36.286C75.4896 36.1649 75.5732 36.2331 75.7403 38.8449C76.0137 43.1677 76.8946 47.3316 79.0819 51.1775C79.2338 51.4652 79.3401 51.821 79.7957 52.0481Z" fill="#2C2F31"/>
<path d="M34.631 69.9673C34.6842 71.2316 34.7298 72.4883 34.988 73.7374C35.9525 78.5221 39.1422 80.5661 44.147 79.5517C45.028 79.37 45.9013 79.1126 46.7595 78.8325C47.5493 78.5751 48.3164 78.1663 48.772 79.2867C49.2657 80.4829 49.0151 81.5882 48.0354 82.0878C47.1848 82.5118 46.2431 82.6556 45.3089 82.8146C43.266 83.1629 41.2155 83.2916 39.1574 82.9509C35.2158 82.2998 32.5805 80.0968 31.3426 76.5083C29.8845 72.2763 29.8541 67.9611 31.2439 63.6988C32.5046 59.8378 35.2842 57.5514 39.4991 56.9836C42.0585 56.643 44.6026 56.8474 47.0785 57.5741C48.4455 57.9754 48.8024 58.5356 48.6429 59.8529C48.4759 61.2913 47.9366 61.6169 46.5089 61.0945C45.195 60.61 43.8432 60.2693 42.4306 60.2011C38.6106 60.0195 36.2715 61.6471 35.2234 65.1675C34.7602 66.7346 34.669 68.3472 34.631 69.9673Z" fill="#2C2F31"/>
<path d="M89.0382 80.2565C87.4434 81.869 85.6663 82.8153 83.4942 83.0879C80.5855 83.4513 78.0338 82.2248 77.1984 79.9991C76.2415 77.4478 77.2439 74.6618 79.697 73.1931C81.9829 71.8228 84.5574 71.5502 87.1851 71.5351C88.6585 71.5275 88.7117 71.4518 88.4838 70.0437C88.2788 68.787 87.5193 68.0223 86.1523 67.7725C84.1018 67.4091 82.1272 67.7119 80.2362 68.4993C79.5071 68.8021 78.8084 69.2412 78.292 68.1964C77.7832 67.1593 77.9806 66.0918 78.8691 65.5922C79.5906 65.1834 80.3956 65.0244 81.2007 64.8654C83.3575 64.4414 85.5295 64.2976 87.7092 64.6988C90.428 65.1985 92.0684 66.7202 92.4026 69.3472C92.9266 73.5186 92.5317 77.7127 92.6304 81.8917C92.6456 82.6336 92.1216 82.8456 91.4912 82.838C90.709 82.8229 89.7597 83.0803 89.4483 81.9977C89.2965 81.4753 89.1977 80.9454 89.0382 80.2565ZM87.4737 74.1318C85.408 74.306 83.7221 74.4195 82.2563 75.3431C81.2159 75.9942 80.8209 76.9481 81.0564 78.0988C81.2614 79.083 81.9601 79.6432 82.9702 79.8779C85.2258 80.4003 88.78 78.5228 88.6129 75.6762C88.537 74.5936 88.4914 73.8517 87.4737 74.1318Z" fill="#2C2F31"/>
<path d="M66.68 75.6458C65.7383 75.5625 64.7966 75.4868 63.8548 75.3884C63.3764 75.3354 63.2017 75.4565 63.2624 75.9713C63.5207 78.2425 65.0548 79.7188 67.447 79.9156C69.2469 80.067 70.9861 79.8323 72.6417 79.1207C73.3404 78.8179 74.0011 78.462 74.5175 79.3857C75.0643 80.3623 74.9276 81.3843 74.1226 81.9445C74.0543 81.9899 73.9859 82.0354 73.91 82.0657C69.9153 83.4965 65.9585 83.7766 62.1537 81.5509C60.9234 80.8317 60.1259 79.6961 59.655 78.4015C58.5007 75.237 58.4931 72.0573 59.7386 68.9155C60.5132 66.9547 62.017 65.6298 64.0827 64.9863C66.4142 64.2596 68.7913 64.2444 71.138 64.9485C73.7581 65.7358 75.2618 67.7269 75.2238 70.2479C75.1859 72.6932 73.7353 74.3588 70.9709 75.0931C69.5659 75.4641 68.1305 75.6004 66.68 75.6458ZM66.0117 72.7311C67.2116 72.7765 68.404 72.7387 69.5431 72.3071C70.4621 71.9589 71.0317 71.3381 71.1152 70.3691C71.2063 69.3546 70.9177 68.4915 69.9912 67.901C67.7584 66.4778 64.4472 67.5452 63.5662 69.9754C62.6853 72.398 62.8827 72.6857 65.518 72.7386C65.6851 72.7386 65.8522 72.7387 66.0117 72.7311Z" fill="#2C2F31"/>
<path d="M100.248 67.2424C101.85 65.8192 103.521 64.8804 105.556 64.5927C109.665 64.0173 112.353 66.122 112.407 70.0814C112.46 73.8364 112.384 77.5915 112.445 81.3389C112.46 82.4367 112.004 82.8606 110.933 82.8379C110.645 82.8303 110.356 82.8531 110.067 82.8379C108.533 82.7849 108.404 82.6562 108.397 81.1648C108.389 77.9624 108.412 74.7676 108.389 71.5652C108.381 70.301 108.419 68.9307 107.014 68.2342C105.518 67.4923 104.045 67.8557 102.67 68.643C101.334 69.4076 100.628 70.5054 100.65 72.0573C100.696 75.1386 100.62 78.2198 100.688 81.3011C100.711 82.4594 100.225 82.8833 99.101 82.8379C98.6453 82.8228 98.1972 82.8228 97.7416 82.8001C97.0049 82.7622 96.6176 82.4367 96.6176 81.6872C96.6251 76.4332 96.6251 71.1791 96.6176 65.9251C96.6176 65.2816 96.8606 64.8047 97.5593 64.7593C98.3491 64.7138 99.2681 64.4716 99.663 65.5012C99.8528 66.016 100.012 66.5459 100.248 67.2424Z" fill="#2C2F31"/>
<path d="M55.8121 69.5589C55.8121 73.4275 55.8121 77.2961 55.8121 81.1571C55.8121 82.6561 55.6451 82.8151 54.035 82.8529C53.83 82.8605 53.6249 82.8378 53.4199 82.8529C52.2427 82.9059 51.7642 82.482 51.7794 81.2555C51.8326 74.4268 51.8098 67.6057 51.8098 60.777C51.8098 59.7928 51.7794 58.8011 51.8174 57.8169C51.8402 57.2339 51.5136 56.386 52.4098 56.2195C53.435 56.0226 54.5514 55.8485 55.5311 56.3936C55.9792 56.6434 55.8121 57.1809 55.8121 57.6049C55.8121 61.587 55.8121 65.5692 55.8121 69.5589Z" fill="#2C2F31"/>
<path d="M88.727 94.4433C88.408 94.413 88.0814 94.3903 87.7624 94.3524C87.5954 94.3373 87.5422 94.3752 87.5574 94.5493C87.6485 95.3291 88.1725 95.8287 88.9927 95.8969C89.6079 95.9499 90.2003 95.8666 90.7699 95.6243C91.0129 95.5183 91.2331 95.3972 91.4154 95.7151C91.6053 96.0483 91.5521 96.3965 91.2787 96.5933C91.2559 96.6085 91.2332 96.6236 91.2028 96.6312C89.8358 97.1233 88.4839 97.2141 87.1776 96.4571C86.7599 96.2148 86.4865 95.8212 86.3195 95.3745C85.9245 94.2919 85.9246 93.2017 86.3499 92.1267C86.6157 91.4529 87.1321 91.0062 87.8384 90.7791C88.6358 90.5293 89.4484 90.5217 90.2535 90.764C91.1496 91.0365 91.666 91.7179 91.6508 92.5809C91.6356 93.4137 91.142 93.9891 90.1927 94.2389C89.7218 94.3827 89.2282 94.4281 88.727 94.4433ZM88.5067 93.444C88.9168 93.4591 89.3269 93.444 89.7142 93.3001C90.0256 93.179 90.2231 92.967 90.2535 92.6339C90.2838 92.2857 90.1851 91.9904 89.8661 91.786C89.0991 91.3015 87.9675 91.6649 87.6637 92.4976C87.3599 93.3304 87.4283 93.4288 88.332 93.444C88.3928 93.444 88.4459 93.444 88.5067 93.444Z" fill="#98CB67"/>
<path d="M53.792 89.2652L57.3158 94.3754V89.2198C57.3158 88.8867 57.3918 88.6369 57.5437 88.4627C57.6956 88.2962 57.893 88.2129 58.1512 88.2129C58.417 88.2129 58.6221 88.2962 58.774 88.4627C58.9259 88.6293 59.0018 88.8791 59.0018 89.2198V96.0409C59.0018 96.8055 58.6753 97.1841 58.0145 97.1841C57.8475 97.1841 57.7031 97.1614 57.5664 97.1159C57.4373 97.0705 57.3082 97.0024 57.1943 96.8964C57.0804 96.798 56.9741 96.6844 56.8754 96.5482C56.7766 96.4195 56.6779 96.2832 56.5792 96.1393L53.1388 91.0897V96.1696C53.1388 96.5027 53.0553 96.7526 52.8958 96.9191C52.7363 97.0857 52.5313 97.1765 52.2807 97.1765C52.0225 97.1765 51.8098 97.0932 51.6579 96.9191C51.4984 96.745 51.4225 96.4952 51.4225 96.1696V89.4848C51.4225 89.2047 51.4529 88.9775 51.5212 88.8186C51.5972 88.6444 51.7262 88.493 51.9085 88.387C52.0908 88.2735 52.2882 88.2205 52.4933 88.2205C52.6604 88.2205 52.7971 88.2432 52.9186 88.2962C53.0325 88.3492 53.1389 88.4173 53.23 88.5006C53.3211 88.5839 53.4122 88.6974 53.5034 88.8413C53.5945 88.97 53.6932 89.1138 53.792 89.2652Z" fill="#98CB67"/>
<path d="M65.1534 96.2678C64.7433 96.5706 64.3484 96.7977 63.9687 96.9491C63.5889 97.1006 63.1636 97.1763 62.6852 97.1763C62.2523 97.1763 61.8726 97.093 61.546 96.934C61.2194 96.7675 60.9688 96.5479 60.7865 96.2678C60.6119 95.9877 60.5208 95.6848 60.5208 95.3593C60.5208 94.9202 60.6651 94.5417 60.9612 94.2313C61.2498 93.9209 61.6523 93.7089 62.1688 93.6029C62.2751 93.5802 62.5409 93.5272 62.9662 93.4439C63.3915 93.3607 63.756 93.285 64.0522 93.2168C64.356 93.1487 64.6826 93.0654 65.0395 92.967C65.0167 92.543 64.9332 92.2251 64.7737 92.0282C64.6142 91.8314 64.2876 91.733 63.7864 91.733C63.3611 91.733 63.0345 91.7935 62.8219 91.9071C62.6092 92.0207 62.4194 92.1948 62.2675 92.4219C62.1156 92.649 62.0017 92.8004 61.9409 92.8761C61.8802 92.9519 61.7435 92.9821 61.5308 92.9821C61.341 92.9821 61.1815 92.9216 61.0372 92.808C60.9005 92.6945 60.8321 92.543 60.8321 92.3614C60.8321 92.0812 60.9385 91.8011 61.1435 91.5362C61.3562 91.2712 61.6827 91.0441 62.1232 90.8775C62.5713 90.7034 63.1181 90.6201 63.7864 90.6201C64.5307 90.6201 65.1078 90.7034 65.5331 90.8699C65.9584 91.0365 66.2546 91.3015 66.4293 91.6648C66.6039 92.0282 66.6951 92.5052 66.6951 93.1108C66.6951 93.4894 66.6951 93.8073 66.6951 94.0723C66.6951 94.3373 66.6875 94.6325 66.6875 94.9505C66.6875 95.2533 66.7407 95.5713 66.847 95.8968C66.9533 96.2224 67.0065 96.4344 67.0065 96.5328C67.0065 96.6993 66.9229 96.8507 66.7634 96.987C66.6039 97.1233 66.4141 97.1914 66.209 97.1914C66.0344 97.1914 65.8673 97.1157 65.7002 96.9567C65.518 96.7902 65.3433 96.563 65.1534 96.2678ZM65.0395 93.9285C64.7889 94.0118 64.4319 94.1102 63.961 94.201C63.4902 94.2994 63.1636 94.3676 62.9814 94.413C62.7991 94.4584 62.6244 94.5493 62.4649 94.678C62.2979 94.8067 62.2143 94.9959 62.2143 95.2306C62.2143 95.4729 62.313 95.6848 62.5029 95.8514C62.6928 96.0255 62.951 96.1088 63.2624 96.1088C63.5965 96.1088 63.9003 96.0407 64.1889 95.8968C64.4699 95.7606 64.675 95.5789 64.8117 95.3593C64.9636 95.1171 65.0395 94.7158 65.0395 94.1556V93.9285Z" fill="#98CB67"/>
<path d="M68.1837 90.7563H68.366V89.7873C68.366 89.5299 68.3735 89.3255 68.3887 89.1741C68.4039 89.0226 68.4419 88.9015 68.5103 88.7955C68.5786 88.682 68.6698 88.5987 68.7913 88.523C68.9128 88.4548 69.0495 88.417 69.2014 88.417C69.414 88.417 69.6115 88.4927 69.7785 88.6441C69.8925 88.7501 69.9684 88.8712 69.9988 89.0226C70.0291 89.174 70.0443 89.3785 70.0443 89.651V90.7487H70.6595C70.8949 90.7487 71.0772 90.8017 71.2063 90.9077C71.3354 91.0137 71.3962 91.1576 71.3962 91.3241C71.3962 91.5437 71.305 91.6951 71.1303 91.7783C70.9481 91.8616 70.6975 91.907 70.3633 91.907H70.0519V94.8747C70.0519 95.1246 70.0596 95.3214 70.0823 95.4577C70.0975 95.5939 70.1507 95.7075 70.2342 95.7908C70.3177 95.874 70.4469 95.9195 70.6291 95.9195C70.7279 95.9195 70.8646 95.9043 71.0317 95.8665C71.1987 95.8362 71.3354 95.8135 71.4265 95.8135C71.5632 95.8135 71.6848 95.8665 71.7911 95.9725C71.8974 96.0784 71.9582 96.2072 71.9582 96.3586C71.9582 96.616 71.8139 96.8204 71.5101 96.9567C71.2139 97.0929 70.7886 97.1611 70.2342 97.1611C69.7102 97.1611 69.3077 97.0778 69.0343 96.9037C68.7609 96.7371 68.5862 96.5024 68.5027 96.1996C68.4191 95.8968 68.3736 95.5031 68.3736 94.9959V91.8995H68.1533C67.9103 91.8995 67.728 91.8465 67.5989 91.7329C67.4698 91.6194 67.4091 91.4831 67.4091 91.3165C67.4091 91.15 67.4774 91.0061 67.6065 90.9002C67.7356 90.8093 67.9255 90.7563 68.1837 90.7563Z" fill="#98CB67"/>
<path d="M76.9478 96.2676V96.0632C76.7427 96.3054 76.5376 96.5098 76.3098 96.6764C76.0896 96.8429 75.8466 96.9641 75.5808 97.0473C75.3149 97.1306 75.0188 97.1685 74.677 97.1685C74.2669 97.1685 73.9024 97.0852 73.5834 96.9262C73.2568 96.7672 73.0138 96.5401 72.8315 96.26C72.6189 95.9193 72.5201 95.4272 72.5201 94.7837V91.5813C72.5201 91.2558 72.5961 91.0136 72.748 90.8546C72.8999 90.6956 73.1049 90.6123 73.3556 90.6123C73.6138 90.6123 73.8188 90.6956 73.9707 90.8546C74.1302 91.0136 74.2062 91.2558 74.2062 91.5738V94.1553C74.2062 94.5263 74.2365 94.8443 74.3049 95.1017C74.3732 95.3591 74.4871 95.5559 74.6618 95.6998C74.8289 95.8436 75.0643 95.9193 75.3529 95.9193C75.6339 95.9193 75.9073 95.836 76.1579 95.6771C76.4086 95.5181 76.5908 95.3061 76.7047 95.0411C76.7959 94.814 76.849 94.3143 76.849 93.5421V91.5813C76.849 91.2634 76.925 91.0211 77.0845 90.8621C77.2439 90.7031 77.4414 90.6199 77.692 90.6199C77.9426 90.6199 78.1477 90.7031 78.2996 90.8621C78.4515 91.0211 78.5274 91.2634 78.5274 91.5889V96.2676C78.5274 96.578 78.4515 96.8051 78.3072 96.9565C78.1629 97.1079 77.973 97.1836 77.7452 97.1836C77.5173 97.1836 77.3275 97.1003 77.1756 96.9413C77.0237 96.7748 76.9478 96.5552 76.9478 96.2676Z" fill="#98CB67"/>
<path d="M81.8766 94.8448V96.1923C81.8766 96.5179 81.7931 96.7677 81.6336 96.9267C81.4741 97.0932 81.2691 97.169 81.0261 97.169C80.783 97.169 80.5856 97.0857 80.4261 96.9191C80.2666 96.7526 80.1907 96.5103 80.1907 96.1848V91.6878C80.1907 90.961 80.464 90.5977 81.0108 90.5977C81.2918 90.5977 81.4893 90.6809 81.6184 90.8551C81.7399 91.0216 81.8083 91.2714 81.8235 91.6045C82.0285 91.2714 82.2336 91.0216 82.4462 90.8551C82.6589 90.6885 82.9399 90.5977 83.2968 90.5977C83.6538 90.5977 83.9955 90.6809 84.3297 90.8551C84.6638 91.0216 84.8309 91.2487 84.8309 91.5288C84.8309 91.7257 84.7625 91.8922 84.6182 92.0134C84.474 92.1421 84.3221 92.2026 84.155 92.2026C84.0942 92.2026 83.9423 92.1648 83.7069 92.0966C83.4715 92.0209 83.2589 91.9906 83.0766 91.9906C82.826 91.9906 82.6285 92.0512 82.469 92.1799C82.3095 92.301 82.188 92.4903 82.1045 92.7326C82.0209 92.9748 81.9602 93.2701 81.9222 93.6032C81.8918 93.9514 81.8766 94.3602 81.8766 94.8448Z" fill="#98CB67"/>
<path d="M92.9418 96.1999V89.1971C92.9418 88.8715 93.0177 88.6293 93.1696 88.4627C93.3215 88.2962 93.5189 88.2129 93.7772 88.2129C94.0354 88.2129 94.2404 88.2962 94.3923 88.4552C94.5442 88.6141 94.6277 88.864 94.6277 89.1895V96.1923C94.6277 96.5179 94.5518 96.7677 94.3923 96.9267C94.2328 97.0932 94.0278 97.1689 93.7772 97.1689C93.5265 97.1689 93.3291 97.0857 93.1772 96.9116C93.0177 96.7526 92.9418 96.5103 92.9418 96.1999Z" fill="#98CB67"/>
</g>
<defs>
<clipPath id="clip0_1956_6583">
<rect width="157.207" height="134" fill="white"/>
</clipPath>
</defs>
</svg>
