<svg width="18" height="18" viewBox="0 0 18 18" fill="none" xmlns="http://www.w3.org/2000/svg">
<path d="M7.81494 10.0646H9.94494L10.1849 7.93457H8.05494L7.81494 10.0646Z" fill="#4B4B4B"/>
<path d="M12.1425 1.5H5.8575C3.1275 1.5 1.5 3.1275 1.5 5.8575V12.135C1.5 14.8725 3.1275 16.5 5.8575 16.5H12.135C14.865 16.5 16.4925 14.8725 16.4925 12.1425V5.8575C16.5 3.1275 14.8725 1.5 12.1425 1.5ZM14.115 7.935H11.2875L11.0475 10.0725H13.575C13.875 10.0725 14.1225 10.32 14.1225 10.62C14.1225 10.92 13.875 11.1675 13.575 11.1675H10.9275L10.62 13.9125C10.59 14.19 10.35 14.4 10.0725 14.4C10.05 14.4 10.035 14.4 10.0125 14.4C9.7125 14.37 9.495 14.0925 9.525 13.7925L9.8175 11.1675H7.6875L7.38 13.9125C7.35 14.19 7.11 14.4 6.8325 14.4C6.81 14.4 6.795 14.4 6.7725 14.4C6.4725 14.37 6.255 14.0925 6.285 13.7925L6.5775 11.1675H3.885C3.585 11.1675 3.3375 10.92 3.3375 10.62C3.3375 10.32 3.585 10.0725 3.885 10.0725H6.7125L6.9525 7.935H4.425C4.125 7.935 3.8775 7.6875 3.8775 7.3875C3.8775 7.0875 4.125 6.84 4.425 6.84H7.0725L7.38 4.095C7.41 3.795 7.6875 3.5775 7.9875 3.6075C8.2875 3.6375 8.505 3.915 8.475 4.215L8.1825 6.84H10.3125L10.62 4.095C10.6575 3.795 10.9275 3.5775 11.2275 3.6075C11.5275 3.6375 11.745 3.915 11.715 4.215L11.4225 6.84H14.13C14.43 6.84 14.6775 7.0875 14.6775 7.3875C14.6775 7.6875 14.415 7.935 14.115 7.935Z" fill="#4B4B4B"/>
</svg>
