<svg width="34" height="34" viewBox="0 0 34 34" fill="none" xmlns="http://www.w3.org/2000/svg">
<circle cx="17" cy="17" r="16.5" stroke="#E6E6E6"/>
<path d="M10.7388 18.4858H22.9575C23.0903 18.4858 23.2121 18.4526 23.3228 18.3862C23.439 18.3198 23.5303 18.2313 23.5967 18.1206C23.6631 18.0044 23.6963 17.8771 23.6963 17.7388C23.6963 17.606 23.6631 17.4842 23.5967 17.3735C23.5303 17.2573 23.439 17.166 23.3228 17.0996C23.2121 17.0332 23.0903 17 22.9575 17H10.7388C10.606 17 10.4842 17.0332 10.3735 17.0996C10.2629 17.166 10.1715 17.2573 10.0996 17.3735C10.0332 17.4842 10 17.606 10 17.7388C10 17.8771 10.0332 18.0044 10.0996 18.1206C10.1715 18.2313 10.2629 18.3198 10.3735 18.3862C10.4842 18.4526 10.606 18.4858 10.7388 18.4858Z" fill="black"/>
</svg>
