<svg width="225" height="151" viewBox="0 0 225 151" fill="none" xmlns="http://www.w3.org/2000/svg">
<g clip-path="url(#clip0_169_8166)">
<path fill-rule="evenodd" clip-rule="evenodd" d="M113.695 110.058C113.695 110.058 83.526 85.9682 83.526 63.9675C83.526 47.7667 97.0343 34.6357 113.695 34.6357C130.356 34.6357 143.864 47.7667 143.864 63.9675C143.864 85.9682 113.695 110.058 113.695 110.058Z" fill="#97CB66" stroke="#97CB66" stroke-width="10.7895" stroke-linecap="round" stroke-linejoin="round"/>
<path d="M113.688 61.2695C111.676 61.2695 110.058 62.8618 110.058 64.8105C110.058 66.7595 111.689 68.339 113.701 68.339C115.714 68.339 117.332 66.7595 117.332 64.7978C117.344 62.8618 115.714 61.2695 113.688 61.2695Z" stroke="white" stroke-width="18.3468" stroke-linecap="round" stroke-linejoin="round"/>
<path fill-rule="evenodd" clip-rule="evenodd" d="M21.5535 105.282H22.2485C22.4168 105.282 22.552 105.418 22.552 105.585V106.28C22.552 106.448 22.4153 106.584 22.2488 106.584H21.5538C21.4733 106.583 21.3962 106.551 21.3393 106.494C21.2824 106.438 21.2503 106.36 21.25 106.28V105.585C21.2499 105.545 21.2577 105.506 21.2729 105.469C21.2881 105.432 21.3105 105.398 21.3387 105.37C21.3669 105.342 21.4004 105.32 21.4372 105.304C21.4741 105.289 21.5136 105.281 21.5535 105.282ZM23.9635 105.282H24.6585C24.8253 105.282 24.962 105.418 24.962 105.585V106.28C24.962 106.448 24.8253 106.584 24.6588 106.584H23.9638C23.8833 106.583 23.8063 106.551 23.7494 106.494C23.6926 106.437 23.6605 106.36 23.6603 106.28V105.585C23.6603 105.418 23.797 105.282 23.9635 105.282ZM26.3753 105.282H27.0703C27.237 105.282 27.3738 105.418 27.3738 105.585V106.28C27.3738 106.448 27.237 106.584 27.0703 106.584H26.3753C26.2948 106.583 26.2178 106.551 26.1609 106.494C26.1041 106.437 26.072 106.36 26.0718 106.28V105.585C26.0717 105.545 26.0795 105.506 26.0947 105.469C26.1099 105.432 26.1323 105.398 26.1605 105.37C26.1887 105.342 26.2222 105.32 26.259 105.304C26.2959 105.289 26.3354 105.281 26.3753 105.282ZM28.7853 105.282H29.4805C29.6473 105.282 29.7838 105.418 29.7838 105.585V106.28C29.7838 106.448 29.6473 106.584 29.4805 106.584H28.7853C28.7047 106.583 28.6274 106.551 28.5703 106.495C28.5132 106.438 28.4809 106.361 28.4805 106.28V105.585C28.4814 105.505 28.5138 105.428 28.5708 105.371C28.6278 105.314 28.7048 105.282 28.7853 105.282ZM31.1955 105.282H31.8908C31.9713 105.282 32.0486 105.314 32.1057 105.37C32.1628 105.427 32.1951 105.504 32.1955 105.585V106.28C32.1955 106.448 32.0588 106.584 31.8908 106.584H31.1955C31.1151 106.583 31.0382 106.551 30.9813 106.494C30.9245 106.437 30.8925 106.36 30.8923 106.28V105.585C30.8923 105.418 31.029 105.282 31.1955 105.282ZM24.052 107.91H24.747C24.9138 107.91 25.0505 108.047 25.0505 108.213V108.91C25.0505 109.076 24.9138 109.213 24.747 109.213H24.052C23.9715 109.213 23.8944 109.181 23.8375 109.124C23.7806 109.067 23.7486 108.99 23.7485 108.91V108.215C23.7483 108.175 23.756 108.135 23.7711 108.098C23.7863 108.061 23.8086 108.027 23.8368 107.999C23.865 107.971 23.8986 107.948 23.9355 107.933C23.9724 107.918 24.012 107.91 24.052 107.91ZM26.462 107.91H27.1573C27.3238 107.91 27.4605 108.047 27.4605 108.213V108.91C27.4605 109.076 27.3238 109.213 27.1573 109.213H26.462C26.3816 109.213 26.3045 109.181 26.2477 109.124C26.1908 109.067 26.1588 108.99 26.1585 108.91V108.215C26.1583 108.175 26.166 108.135 26.1812 108.098C26.1963 108.061 26.2187 108.027 26.2469 107.999C26.2751 107.971 26.3086 107.948 26.3455 107.933C26.3824 107.918 26.422 107.91 26.462 107.91ZM28.8723 107.91H29.5675C29.648 107.91 29.7253 107.942 29.7824 107.999C29.8395 108.055 29.8718 108.132 29.8723 108.213V108.91C29.8719 108.99 29.8396 109.067 29.7825 109.124C29.7254 109.181 29.6481 109.213 29.5675 109.213H28.8723C28.7918 109.213 28.7148 109.181 28.6579 109.124C28.6011 109.067 28.569 108.99 28.5688 108.91V108.215C28.5688 108.134 28.6008 108.057 28.6576 108C28.7145 107.942 28.7917 107.91 28.8723 107.91ZM26.3753 102.458H27.0703C27.237 102.458 27.3738 102.595 27.3738 102.761V103.457C27.3738 103.625 27.237 103.76 27.0703 103.76H26.3753C26.2948 103.76 26.2178 103.728 26.1609 103.671C26.1041 103.614 26.072 103.537 26.0718 103.457V102.761C26.0717 102.722 26.0795 102.682 26.0948 102.645C26.11 102.609 26.1324 102.575 26.1606 102.547C26.1888 102.519 26.2222 102.496 26.2591 102.481C26.2959 102.466 26.3354 102.458 26.3753 102.458ZM28.7853 102.458H29.4805C29.6473 102.458 29.7838 102.595 29.7838 102.761V103.457C29.7838 103.625 29.6473 103.76 29.4805 103.76H28.7853C28.7047 103.76 28.6274 103.728 28.5703 103.671C28.5132 103.614 28.4809 103.537 28.4805 103.457V102.761C28.4814 102.681 28.5139 102.604 28.5709 102.548C28.6279 102.491 28.7048 102.459 28.7853 102.458ZM202.695 104.303H201.995C201.825 104.303 201.689 104.44 201.689 104.608V105.308C201.689 105.478 201.827 105.614 201.995 105.614H202.695C202.862 105.614 203 105.476 203 105.308V104.608C203 104.568 202.992 104.529 202.977 104.491C202.962 104.454 202.939 104.421 202.911 104.392C202.882 104.364 202.849 104.341 202.812 104.326C202.774 104.311 202.735 104.303 202.695 104.303ZM200.268 104.303H199.568C199.4 104.303 199.262 104.44 199.262 104.608V105.308C199.262 105.478 199.4 105.614 199.568 105.614H200.268C200.436 105.614 200.574 105.476 200.574 105.308V104.608C200.574 104.44 200.436 104.303 200.268 104.303ZM197.84 104.303H197.14C196.972 104.303 196.834 104.44 196.834 104.608V105.308C196.834 105.478 196.972 105.614 197.14 105.614H197.84C198.008 105.614 198.145 105.476 198.145 105.308V104.608C198.145 104.568 198.138 104.529 198.122 104.491C198.107 104.454 198.084 104.421 198.056 104.392C198.028 104.364 197.994 104.341 197.957 104.326C197.92 104.311 197.88 104.303 197.84 104.303ZM195.413 104.303H194.713C194.546 104.303 194.408 104.44 194.408 104.608V105.308C194.408 105.478 194.546 105.614 194.713 105.614H195.413C195.583 105.614 195.72 105.476 195.72 105.308V104.608C195.719 104.528 195.687 104.45 195.629 104.393C195.572 104.336 195.494 104.303 195.413 104.303ZM192.986 104.303H192.286C192.117 104.303 191.98 104.44 191.98 104.608V105.308C191.98 105.478 192.117 105.614 192.286 105.614H192.986C193.154 105.614 193.292 105.476 193.292 105.308V104.608C193.292 104.44 193.154 104.303 192.986 104.303ZM200.179 106.949H199.479C199.311 106.949 199.173 107.087 199.173 107.255V107.956C199.173 108.124 199.311 108.261 199.479 108.261H200.179C200.348 108.261 200.484 108.124 200.484 107.956V107.256C200.485 107.216 200.477 107.176 200.462 107.139C200.447 107.101 200.424 107.067 200.396 107.039C200.367 107.01 200.334 106.988 200.296 106.972C200.259 106.957 200.219 106.949 200.179 106.949ZM197.752 106.949H197.053C196.885 106.949 196.747 107.087 196.747 107.255V107.956C196.747 108.124 196.885 108.261 197.053 108.261H197.752C197.92 108.261 198.058 108.124 198.058 107.956V107.256C198.058 107.216 198.05 107.176 198.035 107.139C198.02 107.101 197.997 107.067 197.969 107.039C197.941 107.01 197.907 106.988 197.87 106.972C197.832 106.957 197.793 106.949 197.752 106.949ZM195.326 106.949H194.626C194.456 106.949 194.319 107.087 194.319 107.255V107.956C194.319 108.124 194.456 108.261 194.626 108.261H195.326C195.493 108.261 195.631 108.124 195.631 107.956V107.256C195.631 107.087 195.493 106.949 195.326 106.949ZM197.84 101.46H197.14C196.972 101.46 196.834 101.598 196.834 101.766V102.466C196.834 102.635 196.972 102.771 197.14 102.771H197.84C198.008 102.771 198.145 102.634 198.145 102.466V101.766C198.145 101.726 198.137 101.686 198.122 101.649C198.107 101.612 198.084 101.578 198.056 101.55C198.028 101.521 197.994 101.499 197.957 101.483C197.92 101.468 197.88 101.46 197.84 101.46ZM195.413 101.46H194.713C194.546 101.46 194.408 101.598 194.408 101.766V102.466C194.408 102.635 194.546 102.771 194.713 102.771H195.413C195.583 102.771 195.72 102.634 195.72 102.466V101.766C195.719 101.685 195.687 101.607 195.629 101.55C195.572 101.493 195.494 101.461 195.413 101.46ZM152.053 44.3233H152.749C152.917 44.3233 153.052 44.46 153.052 44.6268V45.322C153.052 45.49 152.915 45.6253 152.749 45.6253H152.053C151.973 45.625 151.896 45.593 151.839 45.5362C151.782 45.4794 151.75 45.4024 151.75 45.322V44.6268C151.75 44.5869 151.758 44.5473 151.773 44.5105C151.788 44.4736 151.81 44.4401 151.839 44.4119C151.867 44.3836 151.9 44.3613 151.937 44.3461C151.974 44.3309 152.014 44.3231 152.053 44.3233ZM154.464 44.3233H155.159C155.325 44.3233 155.462 44.46 155.462 44.6268V45.322C155.462 45.49 155.325 45.6253 155.159 45.6253H154.464C154.383 45.625 154.306 45.593 154.249 45.5362C154.192 45.4794 154.16 45.4024 154.16 45.322V44.6268C154.16 44.46 154.297 44.3233 154.464 44.3233ZM156.875 44.3233H157.57C157.737 44.3233 157.874 44.46 157.874 44.6268V45.322C157.874 45.49 157.737 45.6253 157.57 45.6253H156.875C156.795 45.625 156.718 45.593 156.661 45.5362C156.604 45.4794 156.572 45.4024 156.572 45.322V44.6268C156.572 44.5869 156.579 44.5473 156.595 44.5105C156.61 44.4736 156.632 44.4401 156.66 44.4119C156.689 44.3836 156.722 44.3613 156.759 44.3461C156.796 44.3309 156.835 44.3231 156.875 44.3233ZM159.285 44.3233H159.98C160.147 44.3233 160.284 44.46 160.284 44.6268V45.322C160.284 45.49 160.147 45.6253 159.98 45.6253H159.285C159.205 45.6253 159.127 45.5934 159.07 45.5365C159.013 45.4797 158.981 45.4026 158.98 45.322V44.6268C158.981 44.5463 159.014 44.4694 159.071 44.4126C159.128 44.3559 159.205 44.3238 159.285 44.3233ZM161.695 44.3233H162.391C162.471 44.3233 162.549 44.3553 162.606 44.4121C162.663 44.469 162.695 44.5462 162.695 44.6268V45.3218C162.695 45.49 162.559 45.6253 162.391 45.6253H161.695C161.615 45.625 161.538 45.5929 161.481 45.5361C161.424 45.4792 161.392 45.4022 161.392 45.3218V44.6268C161.392 44.46 161.529 44.3233 161.695 44.3233ZM154.552 46.9515H155.247C155.413 46.9515 155.55 47.0883 155.55 47.2548V47.9515C155.55 48.118 155.413 48.2548 155.247 48.2548H154.552C154.471 48.2547 154.394 48.2227 154.337 48.1659C154.281 48.109 154.249 48.0319 154.249 47.9515V47.2562C154.248 47.2163 154.256 47.1767 154.271 47.1397C154.286 47.1027 154.309 47.0691 154.337 47.0408C154.365 47.0125 154.398 46.99 154.435 46.9747C154.472 46.9593 154.512 46.9515 154.552 46.9515ZM156.962 46.9515H157.657C157.824 46.9515 157.96 47.0883 157.96 47.2548V47.9515C157.96 48.118 157.824 48.2548 157.657 48.2548H156.962C156.882 48.2545 156.805 48.2225 156.748 48.1657C156.691 48.1088 156.659 48.0319 156.658 47.9515V47.2562C156.658 47.2163 156.666 47.1766 156.681 47.1396C156.696 47.1026 156.719 47.069 156.747 47.0407C156.775 47.0124 156.809 46.9899 156.845 46.9746C156.882 46.9593 156.922 46.9514 156.962 46.9515ZM159.372 46.9515H160.067C160.235 46.9515 160.372 47.0883 160.372 47.2548V47.9515C160.372 48.0321 160.339 48.1092 160.282 48.166C160.225 48.2229 160.148 48.2548 160.067 48.2548H159.372C159.292 48.2545 159.215 48.2225 159.158 48.1657C159.101 48.1088 159.069 48.0319 159.069 47.9515V47.2562C159.069 47.1757 159.101 47.0984 159.158 47.0413C159.215 46.9842 159.292 46.9519 159.372 46.9515ZM156.875 41.5H157.57C157.737 41.5 157.874 41.6368 157.874 41.8035V42.4985C157.874 42.6668 157.737 42.802 157.57 42.802H156.875C156.795 42.8017 156.718 42.7697 156.661 42.7128C156.604 42.656 156.572 42.5789 156.572 42.4985V41.8035C156.572 41.7636 156.579 41.7241 156.595 41.6872C156.61 41.6503 156.632 41.6168 156.66 41.5886C156.689 41.5604 156.722 41.538 156.759 41.5228C156.796 41.5076 156.835 41.4999 156.875 41.5ZM159.285 41.5H159.98C160.147 41.5 160.284 41.6368 160.284 41.8035V42.4985C160.284 42.6668 160.147 42.802 159.98 42.802H159.285C159.205 42.802 159.127 42.7701 159.07 42.7132C159.013 42.6563 158.981 42.5791 158.98 42.4985V41.8035C158.981 41.723 159.014 41.6461 159.071 41.5894C159.128 41.5326 159.205 41.5005 159.285 41.5ZM30.5078 91.3457V84.3972C30.5078 82.265 32.2388 80.537 34.375 80.537C36.5113 80.537 38.2422 82.265 38.2422 84.3972V91.3457H46.75V78.088C46.75 77.2697 46.4237 76.4837 45.8435 75.9047L35.4688 65.5485C35.1787 65.2585 34.7853 65.0957 34.3751 65.0957C33.965 65.0957 33.5716 65.2585 33.2815 65.5485L22.9065 75.9047C22.6193 76.1912 22.3915 76.5315 22.2359 76.9061C22.0804 77.2808 22.0002 77.6824 22 78.088V91.3457H30.5078ZM195.391 90V84.7722C195.391 83.1677 194.097 81.8678 192.5 81.8678C190.903 81.8678 189.609 83.1677 189.609 84.7722V90H183.25V80.0253C183.25 79.4095 183.494 78.8182 183.928 78.3825L191.682 70.5908C191.79 70.4828 191.917 70.3971 192.057 70.3387C192.197 70.2802 192.348 70.2501 192.5 70.2501C192.652 70.2501 192.803 70.2802 192.943 70.3387C193.083 70.3971 193.21 70.4828 193.318 70.5908L201.072 78.3825C201.506 78.8191 201.75 79.4097 201.75 80.0253V90H195.391ZM56.2578 71.8458V67.081C56.2578 65.6188 57.4292 64.434 58.875 64.434C60.3208 64.434 61.4922 65.6188 61.4922 67.081V71.8458H67.25V62.7548C67.25 62.1935 67.0292 61.6548 66.6365 61.2575L59.6152 54.1563C59.5187 54.0579 59.4035 53.9799 59.2764 53.9266C59.1493 53.8733 59.0129 53.8458 58.8751 53.8458C58.7373 53.8458 58.6009 53.8733 58.4738 53.9266C58.3468 53.9799 58.2316 54.0579 58.135 54.1563L51.1135 61.2575C50.7202 61.6565 50.4998 62.1944 50.5 62.7548V71.8458H56.2578ZM173.742 73.75V68.9855C173.742 67.5232 172.571 66.3383 171.125 66.3383C169.679 66.3383 168.508 67.5232 168.508 68.9855V73.75H162.75V64.659C162.75 64.098 162.971 63.559 163.363 63.162L170.385 56.0605C170.481 55.9622 170.597 55.884 170.724 55.8307C170.851 55.7774 170.987 55.7499 171.125 55.7499C171.263 55.7499 171.399 55.7774 171.526 55.8307C171.653 55.884 171.769 55.9622 171.865 56.0605L178.887 63.162C179.28 63.5609 179.5 64.0987 179.5 64.659V73.75H173.742ZM62.008 112.346V105.331C62.008 103.179 63.739 101.434 65.875 101.434C68.0112 101.434 69.7422 103.179 69.7422 105.331V112.346H78.25V98.9617C78.25 98.1357 77.9238 97.3423 77.3438 96.7578L66.9688 86.3027C66.8258 86.1579 66.6555 86.043 66.4678 85.9645C66.28 85.886 66.0786 85.8456 65.8751 85.8456C65.6716 85.8456 65.4702 85.886 65.2825 85.9645C65.0947 86.043 64.9244 86.1579 64.7815 86.3027L54.4065 96.7578C53.8256 97.3442 53.4998 98.1363 53.5 98.9617V112.346H62.008ZM164.055 111.25V105.956C164.055 104.331 162.743 103.015 161.125 103.015C159.507 103.015 158.195 104.331 158.195 105.956V111.25H151.75V101.149C151.75 100.526 151.997 99.9267 152.437 99.4855L160.296 91.595C160.405 91.4857 160.534 91.399 160.676 91.3398C160.818 91.2806 160.971 91.2501 161.125 91.2501C161.279 91.2501 161.432 91.2806 161.574 91.3398C161.716 91.399 161.845 91.4857 161.954 91.595L169.813 99.4855C170.253 99.9274 170.5 100.526 170.5 101.149V111.25H164.055Z" fill="#E1E4E5"/>
<path d="M41.875 100.346C41.1156 100.346 40.5 100.961 40.5 101.721C40.5 102.48 41.1156 103.096 41.875 103.096C42.6344 103.096 43.25 102.48 43.25 101.721C43.25 100.961 42.6344 100.346 41.875 100.346Z" fill="#E1E4E5"/>
<path d="M182.125 99.25C182.884 99.25 183.5 99.8656 183.5 100.625C183.5 101.384 182.884 102 182.125 102C181.366 102 180.75 101.384 180.75 100.625C180.75 99.8656 181.366 99.25 182.125 99.25Z" fill="#E1E4E5"/>
<path d="M41.5 61.8457C40.9477 61.8457 40.5 61.398 40.5 60.8457C40.5 60.2934 40.9477 59.8457 41.5 59.8457C42.0523 59.8457 42.5 60.2934 42.5 60.8457C42.5 61.398 42.0523 61.8457 41.5 61.8457Z" fill="#E1E4E5"/>
<path d="M188.625 63.5C189.108 63.5 189.5 63.1082 189.5 62.625C189.5 62.1418 189.108 61.75 188.625 61.75C188.142 61.75 187.75 62.1418 187.75 62.625C187.75 63.1082 188.142 63.5 188.625 63.5Z" fill="#E1E4E5"/>
<path d="M56.875 82.0957C56.1156 82.0957 55.5 81.4801 55.5 80.7207C55.5 79.9613 56.1156 79.3457 56.875 79.3457C57.6344 79.3457 58.25 79.9613 58.25 80.7207C58.25 81.4801 57.6344 82.0957 56.875 82.0957Z" fill="#E1E4E5"/>
<path d="M173.125 84C173.884 84 174.5 83.4404 174.5 82.75C174.5 82.0596 173.884 81.5 173.125 81.5C172.366 81.5 171.75 82.0596 171.75 82.75C171.75 83.4404 172.366 84 173.125 84Z" fill="#E1E4E5"/>
<path d="M95.4212 55.0633C94.1112 55.0633 93.0492 54.0014 93.0492 52.6913C93.0492 51.3813 94.1112 50.3193 95.4212 50.3193C96.7312 50.3193 97.7932 51.3813 97.7932 52.6913C97.7932 54.0014 96.7312 55.0633 95.4212 55.0633Z" fill="#97CB66"/>
<path d="M55.375 109.096C54.8918 109.096 54.5 108.704 54.5 108.221C54.5 107.737 54.8918 107.346 55.375 107.346C55.8582 107.346 56.25 107.737 56.25 108.221C56.25 108.704 55.8582 109.096 55.375 109.096Z" fill="#E1E4E5"/>
<path d="M174.75 111.25C175.302 111.25 175.75 110.858 175.75 110.375C175.75 109.892 175.302 109.5 174.75 109.5C174.198 109.5 173.75 109.892 173.75 110.375C173.75 110.858 174.198 111.25 174.75 111.25Z" fill="#E1E4E5"/>
<path d="M144.434 99.0186C143.502 99.0186 142.746 98.263 142.746 97.3311C142.746 96.3991 143.502 95.6436 144.434 95.6436C145.366 95.6436 146.121 96.3991 146.121 97.3311C146.121 98.263 145.366 99.0186 144.434 99.0186Z" fill="#E1E4E5"/>
<path d="M42.611 76.8655C42.7421 77.3551 42.4516 77.8583 41.962 77.9895C41.4724 78.1207 40.9692 77.8302 40.838 77.3406C40.7068 76.851 40.9974 76.3478 41.4869 76.2166C41.9765 76.0854 42.4798 76.3759 42.611 76.8655Z" fill="#E1E4E5"/>
<path d="M187.567 78.8117C187.435 79.3046 187.727 79.8113 188.22 79.9434C188.713 80.0754 189.22 79.7829 189.352 79.29C189.484 78.797 189.191 78.2904 188.698 78.1583C188.206 78.0262 187.699 78.3188 187.567 78.8117Z" fill="#E1E4E5"/>
<path d="M55.75 62.0957C55.0596 62.0957 54.5 61.5361 54.5 60.8457C54.5 60.1553 55.0596 59.5957 55.75 59.5957C56.4404 59.5957 57 60.1553 57 60.8457C57 61.5361 56.4404 62.0957 55.75 62.0957Z" fill="#E1E4E5"/>
<path d="M174.375 64C174.996 64 175.5 63.4404 175.5 62.75C175.5 62.0596 174.996 61.5 174.375 61.5C173.754 61.5 173.25 62.0596 173.25 62.75C173.25 63.4404 173.754 64 174.375 64Z" fill="#E1E4E5"/>
<path d="M96.723 113.094C96.0992 113.094 95.5935 112.69 95.5935 112.191C95.5935 111.692 96.0992 111.287 96.723 111.287C97.3468 111.287 97.8525 111.692 97.8525 112.191C97.8525 112.69 97.3468 113.094 96.723 113.094Z" fill="#E1E4E5"/>
<path d="M91.9101 27.4692C92.2385 28.6945 91.5113 29.9541 90.2859 30.2824C89.0605 30.6107 87.801 29.8836 87.4727 28.6582C87.1443 27.4328 87.8715 26.1733 89.0969 25.8449C90.3223 25.5166 91.5818 26.2438 91.9101 27.4692Z" fill="#E1E4E5"/>
<path d="M136.049 109.499H136.079C136.253 111.978 138.097 112.016 138.097 112.016C138.097 112.016 136.064 112.056 136.064 114.921C136.064 112.056 134.031 112.016 134.031 112.016C134.031 112.016 135.874 111.978 136.049 109.499ZM52.2332 46.5957H52.266C52.4597 49.3392 54.5 49.3815 54.5 49.3815C54.5 49.3815 52.25 49.4255 52.25 52.5957C52.25 49.4255 50 49.3815 50 49.3815C50 49.3815 52.0397 49.3392 52.2332 46.5957ZM177.767 48.25H177.734C177.54 50.9937 175.5 51.0357 175.5 51.0357C175.5 51.0357 177.75 51.0797 177.75 54.25C177.75 51.0797 180 51.0357 180 51.0357C180 51.0357 177.96 50.9937 177.767 48.25Z" fill="#E1E4E5"/>
</g>
<defs>
<clipPath id="clip0_169_8166">
<rect width="225" height="150" fill="white" transform="translate(0 0.5)"/>
</clipPath>
</defs>
</svg>
