<svg width="225" height="151" viewBox="0 0 225 151" fill="none" xmlns="http://www.w3.org/2000/svg">
<g clip-path="url(#clip0_169_7816)">
<path d="M154.909 114.541C152.654 127.36 121.923 147.347 93.6328 130.73C80.4753 123.001 83.3865 115.926 74.8515 103.725C69.764 96.4529 61.5403 89.9367 60.9225 80.9414C60.3875 73.1769 63.5595 65.7022 68.586 61.5289C79.8903 52.1437 99.1775 48.4007 112.221 70.3592C125.264 92.3174 160.722 81.4809 154.909 114.541Z" fill="url(#paint0_linear_169_7816)"/>
<path d="M177.804 51.2448C175.297 55.7188 169.806 56.3336 161.01 55.4833C154.395 54.8428 148.362 54.3471 141.747 50.7401C137.116 48.2171 133.451 44.8038 130.775 41.4886C127.876 37.8971 123.83 33.7983 125.813 29.7263C128.54 24.1326 144.304 19.4213 159.612 27.1256C176.428 35.5913 180.256 46.8721 177.804 51.2448Z" fill="url(#paint1_linear_169_7816)"/>
<path d="M198.561 71.1657C192.532 74.1569 184.528 70.3109 184.528 70.3109C184.528 70.3109 186.307 61.6169 192.34 58.6299C198.37 55.6389 206.37 59.4807 206.37 59.4807C206.37 59.4807 204.591 68.1747 198.561 71.1657Z" fill="url(#paint2_linear_169_7816)"/>
<path d="M26.9172 92.6175C33.3462 96.4705 42.5695 92.9088 42.5695 92.9088C42.5695 92.9088 41.3635 83.1013 34.9307 79.2525C28.502 75.3995 19.2825 78.957 19.2825 78.957C19.2825 78.957 20.4885 88.7645 26.9172 92.6175Z" fill="url(#paint3_linear_169_7816)"/>
<path d="M186.697 47.83C184.878 47.83 183.404 49.3041 183.404 51.1225C183.404 52.9409 184.878 54.415 186.697 54.415C188.515 54.415 189.989 52.9409 189.989 51.1225C189.989 49.3041 188.515 47.83 186.697 47.83Z" fill="#72B97A"/>
<path d="M143.85 103.923C140.996 103.923 138.683 106.236 138.683 109.09C138.683 111.944 140.996 114.258 143.85 114.258C146.704 114.258 149.018 111.944 149.018 109.09C149.018 106.236 146.704 103.923 143.85 103.923Z" fill="#97CB66"/>
<path d="M81.2868 50.0727C79.7899 50.0727 78.5765 51.2861 78.5765 52.7829C78.5765 54.2797 79.7899 55.4932 81.2868 55.4932C82.7836 55.4932 83.997 54.2797 83.997 52.7829C83.997 51.2861 82.7836 50.0727 81.2868 50.0727Z" fill="#97CB66"/>
<path d="M50.7785 87.4577C49.0737 87.4577 47.6917 86.0757 47.6917 84.3709C47.6917 82.6662 49.0737 81.2842 50.7785 81.2842C52.4832 81.2842 53.8652 82.6662 53.8652 84.3709C53.8652 86.0757 52.4832 87.4577 50.7785 87.4577Z" fill="#97CB66"/>
<path d="M161.94 64.881C161.145 64.881 160.5 64.2361 160.5 63.4405C160.5 62.6449 161.145 62 161.94 62C162.736 62 163.381 62.6449 163.381 63.4405C163.381 64.2361 162.736 64.881 161.94 64.881Z" fill="#97CB66"/>
<path d="M159.351 124.204C158.329 124.204 157.499 123.375 157.499 122.352C157.499 121.329 158.329 120.5 159.351 120.5C160.374 120.5 161.203 121.329 161.203 122.352C161.203 123.375 160.374 124.204 159.351 124.204Z" fill="#E1E4E5"/>
<path d="M37.3235 111.77C35.8461 111.77 34.6485 110.572 34.6485 109.095C34.6485 107.618 35.8461 106.42 37.3235 106.42C38.8008 106.42 39.9985 107.618 39.9985 109.095C39.9985 110.572 38.8008 111.77 37.3235 111.77Z" fill="#E1E4E5"/>
<path d="M188.712 106.097C187.588 106.097 186.676 105.186 186.676 104.061C186.676 102.937 187.588 102.025 188.712 102.025C189.836 102.025 190.748 102.937 190.748 104.061C190.748 105.186 189.836 106.097 188.712 106.097Z" fill="#E1E4E5"/>
<path d="M167.106 43.3854C165.856 43.3854 164.843 42.372 164.843 41.1219C164.843 39.8718 165.856 38.8584 167.106 38.8584C168.356 38.8584 169.37 39.8718 169.37 41.1219C169.37 42.372 168.356 43.3854 167.106 43.3854Z" fill="#E1E4E5"/>
<path d="M45.4166 66.2824C45.7072 67.3668 45.0637 68.4814 43.9793 68.772C42.8949 69.0625 41.7802 68.419 41.4897 67.3346C41.1991 66.2502 41.8426 65.1355 42.927 64.845C44.0115 64.5544 45.1261 65.1979 45.4166 66.2824Z" fill="#E1E4E5"/>
<path d="M95.9812 29.7293C94.4879 29.7293 93.2772 28.5187 93.2772 27.0253C93.2772 25.5319 94.4879 24.3213 95.9812 24.3213C97.4746 24.3213 98.6852 25.5319 98.6852 27.0253C98.6852 28.5187 97.4746 29.7293 95.9812 29.7293Z" fill="#E1E4E5"/>
<path d="M181.302 94.4481C180.153 94.4481 179.222 93.7031 179.222 92.7841C179.222 91.8651 180.153 91.1201 181.302 91.1201C182.45 91.1201 183.382 91.8651 183.382 92.7841C183.382 93.7031 182.45 94.4481 181.302 94.4481Z" fill="#E1E4E5"/>
<path d="M146.155 22.4432C146.76 24.6999 145.421 27.0195 143.164 27.6242C140.907 28.2289 138.588 26.8897 137.983 24.633C137.378 22.3763 138.717 20.0567 140.974 19.452C143.231 18.8473 145.55 20.1865 146.155 22.4432Z" fill="#E1E4E5"/>
<path d="M52.7125 52.7979H52.742C52.9175 55.2839 54.7665 55.3221 54.7665 55.3221C54.7665 55.3221 52.7277 55.3619 52.7277 58.2346C52.7277 55.3619 50.6887 55.3221 50.6887 55.3221C50.6887 55.3221 52.537 55.2839 52.7125 52.7979ZM49.615 117.875H49.6435C49.812 120.354 51.587 120.392 51.587 120.392C51.587 120.392 49.6295 120.432 49.6295 123.296C49.6295 120.432 47.672 120.392 47.672 120.392C47.672 120.392 49.4465 120.354 49.615 117.875Z" fill="#E1E4E5"/>
<path fill-rule="evenodd" clip-rule="evenodd" d="M138.902 32.3251L119.114 23.6738C117.815 23.1058 116.417 22.7992 114.999 22.7716C113.582 22.744 112.173 22.9958 110.853 23.5128L74.813 37.6448C69.2605 39.8223 66.528 46.0871 68.7073 51.6448L96.318 122.058C98.4973 127.616 104.76 130.353 110.312 128.176L160.563 108.472C166.116 106.294 168.848 100.029 166.669 94.4716L144.635 38.2821C143.589 35.6153 141.527 33.4728 138.902 32.3251Z" fill="white" stroke="#E1E4E5" stroke-width="0.8745"/>
<path d="M143.525 82.4329L105.389 97.3868C103.985 97.9374 103.293 99.5221 103.843 100.926C104.394 102.33 105.979 103.022 107.383 102.472L145.519 87.5177C146.923 86.9671 147.615 85.3824 147.065 83.9783C146.514 82.5742 144.93 81.8823 143.525 82.4329Z" fill="#E1E4E5"/>
<path d="M139.567 72.3381L101.431 87.2921C100.026 87.8427 99.3343 89.4273 99.8849 90.8315C100.436 92.2356 102.02 92.9275 103.424 92.3769L141.561 77.423C142.965 76.8723 143.657 75.2877 143.106 73.8836C142.556 72.4794 140.971 71.7875 139.567 72.3381Z" fill="#E1E4E5"/>
<path d="M135.598 62.218L97.462 77.172C96.0578 77.7226 95.3658 79.3072 95.9164 80.7114C96.467 82.1155 98.0517 82.8074 99.4559 82.2568L137.592 67.3028C138.996 66.7522 139.688 65.1676 139.138 63.7635C138.587 62.3593 137.003 61.6674 135.598 62.218Z" fill="#E1E4E5"/>
<path d="M131.63 52.0979L93.4938 67.0519C92.0896 67.6025 91.3976 69.1871 91.9482 70.5912C92.4987 71.9954 94.0834 72.6873 95.4876 72.1367L133.624 57.1827C135.028 56.6321 135.72 55.0475 135.17 53.6433C134.619 52.2392 133.034 51.5473 131.63 52.0979Z" fill="#E1E4E5"/>
<path d="M127.662 41.9778L89.5258 56.9317C88.1216 57.4824 87.4296 59.067 87.9802 60.4711C88.5308 61.8753 90.1154 62.5672 91.5196 62.0166L129.656 47.0626C131.06 46.512 131.752 44.9274 131.202 43.5232C130.651 42.1191 129.066 41.4272 127.662 41.9778Z" fill="#E1E4E5"/>
<path d="M147.513 92.6028L109.377 107.557C107.973 108.107 107.281 109.692 107.831 111.096C108.382 112.5 109.966 113.192 111.371 112.642L149.507 97.6876C150.911 97.137 151.603 95.5524 151.053 94.1482C150.502 92.7441 148.917 92.0522 147.513 92.6028Z" fill="#E1E4E5"/>
<path fill-rule="evenodd" clip-rule="evenodd" d="M51.4628 96.8854L51.9293 98.2382C53.5448 102.932 58.6578 105.425 63.3513 103.81C68.0448 102.194 70.5385 97.0814 68.923 92.3879L68.4563 91.0352" fill="#72B97A"/>
<path fill-rule="evenodd" clip-rule="evenodd" d="M57.0145 42.752L55.842 39.3485C54.5482 35.5963 50.4585 33.6003 46.7022 34.8943C42.9497 36.1883 40.954 40.2778 42.244 44.0303L43.4165 47.4338" fill="#97CB66"/>
<path fill-rule="evenodd" clip-rule="evenodd" d="M35.72 68.482C32.5243 59.2047 37.457 49.0925 46.734 45.897L53.4545 43.5835C62.7318 40.388 72.844 45.3205 76.0395 54.5975L79.6077 64.9647C80.2847 66.9305 81.7149 68.5468 83.5835 69.4582L86.7793 71.0147C87.7046 71.4659 88.532 72.0949 89.2142 72.8659C89.8964 73.6369 90.4199 74.5348 90.755 75.5082C92.0882 79.3782 90.0298 83.5972 86.1598 84.9305L46.4203 98.6147C42.5503 99.948 38.3313 97.8895 36.9983 94.0195C36.3208 92.053 36.4519 89.8979 37.3628 88.028L38.9195 84.8325C39.3714 83.9069 39.6362 82.9013 39.6988 81.8732C39.7613 80.8451 39.6204 79.8148 39.284 78.8412L35.72 68.482Z" fill="#97CB66"/>
<path d="M186.988 127.722L181.25 117.25" stroke="#97CB66" stroke-width="4.758" stroke-linecap="round" stroke-linejoin="round"/>
<path d="M162.126 117.555C174.917 121.706 188.652 114.702 192.803 101.911C196.954 89.1204 189.95 75.3861 177.159 71.235C164.368 67.0839 150.633 74.0879 146.482 86.8789C142.331 99.6699 149.335 113.404 162.126 117.555Z" fill="white" stroke="#97CB66" stroke-width="4.36425" stroke-linecap="round" stroke-linejoin="round"/>
</g>
<defs>
<linearGradient id="paint0_linear_169_7816" x1="107.694" y1="183.544" x2="109.944" y2="-36.0771" gradientUnits="userSpaceOnUse">
<stop stop-color="white"/>
<stop offset="1" stop-color="#EEEEEE"/>
</linearGradient>
<linearGradient id="paint1_linear_169_7816" x1="160.915" y1="80.2413" x2="138.57" y2="-20.1672" gradientUnits="userSpaceOnUse">
<stop stop-color="white"/>
<stop offset="1" stop-color="#EEEEEE"/>
</linearGradient>
<linearGradient id="paint2_linear_169_7816" x1="175.406" y1="80.4959" x2="225.141" y2="41.1559" gradientUnits="userSpaceOnUse">
<stop stop-color="white"/>
<stop offset="1" stop-color="#EEEEEE"/>
</linearGradient>
<linearGradient id="paint3_linear_169_7816" x1="51.795" y1="105.02" x2="0.0664737" y2="56.9578" gradientUnits="userSpaceOnUse">
<stop stop-color="white"/>
<stop offset="1" stop-color="#EEEEEE"/>
</linearGradient>
<clipPath id="clip0_169_7816">
<rect width="225" height="150" fill="white" transform="translate(0 0.5)"/>
</clipPath>
</defs>
</svg>
