<svg width="225" height="151" viewBox="0 0 225 151" fill="none" xmlns="http://www.w3.org/2000/svg">
<g clip-path="url(#clip0_169_8372)">
<path d="M156.464 47.9588C153.819 52.6798 148.025 53.3285 138.744 52.4313C131.763 51.7553 125.397 51.2323 118.416 47.426C113.53 44.764 109.662 41.162 106.839 37.6638C103.78 33.874 99.5102 29.549 101.603 25.252C104.48 19.3495 121.115 14.378 137.268 22.5078C155.013 31.441 159.052 43.3445 156.464 47.9588Z" fill="url(#paint0_linear_169_8372)"/>
<path d="M46.4443 49.1283C50.3118 51.4463 55.8603 49.3035 55.8603 49.3035C55.8603 49.3035 55.1348 43.4035 51.265 41.0883C47.3975 38.7703 41.8513 40.9103 41.8513 40.9103C41.8513 40.9103 42.5768 46.8103 46.4443 49.1283Z" fill="url(#paint1_linear_169_8372)"/>
<path d="M173.432 87.6796C171.417 87.6796 169.784 89.3127 169.784 91.3271C169.784 93.3416 171.417 94.9746 173.432 94.9746C175.446 94.9746 177.079 93.3416 177.079 91.3271C177.079 89.3127 175.446 87.6796 173.432 87.6796Z" fill="#97CB66"/>
<path d="M51.2572 62.8944C49.599 62.8944 48.2547 64.2387 48.2547 65.8969C48.2547 67.5551 49.599 68.8994 51.2572 68.8994C52.9155 68.8994 54.2598 67.5551 54.2598 65.8969C54.2598 64.2387 52.9155 62.8944 51.2572 62.8944Z" fill="#97CB66"/>
<path d="M51.674 108.644C49.7855 108.644 48.2545 107.113 48.2545 105.224C48.2545 103.336 49.7855 101.805 51.674 101.805C53.5625 101.805 55.0935 103.336 55.0935 105.224C55.0935 107.113 53.5625 108.644 51.674 108.644Z" fill="#97CB66"/>
<path d="M164.984 64.4864C164.102 64.4864 163.388 63.772 163.388 62.8907C163.388 62.0094 164.102 61.2949 164.984 61.2949C165.865 61.2949 166.579 62.0094 166.579 62.8907C166.579 63.772 165.865 64.4864 164.984 64.4864Z" fill="#97CB66"/>
<path d="M112.137 138.156C111.004 138.156 110.085 137.238 110.085 136.104C110.085 134.971 111.004 134.053 112.137 134.053C113.27 134.053 114.189 134.971 114.189 136.104C114.189 137.238 113.27 138.156 112.137 138.156Z" fill="#E1E4E5"/>
<path d="M143.039 126.927C141.794 126.927 140.784 125.917 140.784 124.672C140.784 123.426 141.794 122.416 143.039 122.416C144.285 122.416 145.295 123.426 145.295 124.672C145.295 125.917 144.285 126.927 143.039 126.927Z" fill="#E1E4E5"/>
<path d="M166.695 42.5902C165.31 42.5902 164.188 41.4675 164.188 40.0827C164.188 38.6978 165.31 37.5752 166.695 37.5752C168.08 37.5752 169.203 38.6978 169.203 40.0827C169.203 41.4675 168.08 42.5902 166.695 42.5902Z" fill="#E1E4E5"/>
<path d="M168.919 121.589C169.241 122.79 168.528 124.024 167.327 124.346C166.125 124.668 164.891 123.955 164.569 122.754C164.247 121.553 164.96 120.318 166.161 119.996C167.362 119.674 168.597 120.387 168.919 121.589Z" fill="#72B97A"/>
<path d="M74.9697 36.3704C73.3152 36.3704 71.974 35.0292 71.974 33.3747C71.974 31.7201 73.3152 30.3789 74.9697 30.3789C76.6243 30.3789 77.9655 31.7201 77.9655 33.3747C77.9655 35.0292 76.6243 36.3704 74.9697 36.3704Z" fill="#E1E4E5"/>
<path d="M55.1928 125.285C53.9202 125.285 52.8885 124.459 52.8885 123.441C52.8885 122.423 53.9202 121.598 55.1928 121.598C56.4654 121.598 57.497 122.423 57.497 123.441C57.497 124.459 56.4654 125.285 55.1928 125.285Z" fill="#E1E4E5"/>
<path d="M78.7141 122.849C79.384 125.349 77.9003 127.919 75.4002 128.589C72.9002 129.259 70.3304 127.775 69.6605 125.275C68.9906 122.775 70.4742 120.205 72.9743 119.535C75.4744 118.865 78.0442 120.349 78.7141 122.849Z" fill="#72B97A"/>
<path d="M166.655 102.836H166.715C167.072 107.894 170.834 107.972 170.834 107.972C170.834 107.972 166.686 108.052 166.686 113.897C166.686 108.052 162.538 107.972 162.538 107.972C162.538 107.972 166.298 107.894 166.655 102.836Z" fill="#E1E4E5"/>
<path d="M42.028 29.6889L73.5785 21.2351C75.7518 20.6526 77.7068 20.2364 79.5188 20.1274C89.1283 19.1116 93.2838 24.6649 97.8268 41.6194L105.891 71.7164C110.434 88.6709 109.612 95.5579 100.782 99.4831C99.1583 100.294 97.257 100.911 95.0838 101.494L63.5333 109.948C61.3598 110.53 59.4048 110.946 57.593 111.055C47.9835 112.071 43.8278 106.518 39.2848 89.5634L31.2203 59.4664C26.6775 42.5119 27.4998 35.6249 36.3298 31.6996C37.9533 30.8884 39.8545 30.2714 42.028 29.6889Z" fill="white" stroke="#E1E4E5" stroke-width="2.75"/>
<path d="M68.7093 46.9277L79.931 43.9209M51.3052 65.3367L51.3695 65.3194L83.3675 56.7456M54.5755 77.5409L54.6398 77.5236L86.6377 68.9499M57.8457 89.7452L57.9098 89.7279L89.9078 81.1541M57.7892 49.8536L57.818 49.8459M48.1705 52.4309L48.1992 52.4231" stroke="#E1E4E5" stroke-width="6" stroke-linecap="round" stroke-linejoin="round"/>
<path d="M151.583 21.2351L183.133 29.6891C185.306 30.2714 187.208 30.8884 188.831 31.6999C197.661 35.6249 198.484 42.5119 193.941 59.4666L185.876 89.5636C181.333 106.518 177.177 112.071 167.568 111.056C165.756 110.946 163.801 110.53 161.628 109.948L130.077 101.494C127.904 100.911 126.002 100.295 124.379 99.4831C115.549 95.5579 114.726 88.6711 119.269 71.7164L127.334 41.6194C131.877 24.6646 136.033 19.1116 145.642 20.1274C147.454 20.2366 149.409 20.6529 151.583 21.2351Z" fill="white" stroke="#E1E4E5" stroke-width="2.75"/>
<path d="M166.07 49.5055L177.292 52.5122M141.793 56.746L141.857 56.7632L173.855 65.337M138.523 68.9505L138.587 68.9677L170.585 77.5415M135.253 81.1545L135.317 81.1717L167.315 89.7455M155.15 46.5795L155.179 46.5872M145.531 44.002L145.56 44.0097" stroke="#72B97A" stroke-width="6" stroke-linecap="round" stroke-linejoin="round"/>
<path d="M93.6383 12.6836H131.42C134.023 12.6836 136.332 12.8036 138.389 13.2241C149.43 14.9661 152.41 22.4148 152.41 42.7183V78.7598C152.41 99.0633 149.43 106.512 138.389 108.254C136.332 108.674 134.023 108.795 131.42 108.795H93.6383C91.0355 108.795 88.7265 108.674 86.6695 108.254C75.6288 106.512 72.6483 99.0633 72.6483 78.7598V42.7183C72.6483 22.4148 75.6288 14.9661 86.6695 13.2241C88.7265 12.8036 91.0355 12.6836 93.6383 12.6836Z" fill="white" stroke="#E1E4E5" stroke-width="2.75"/>
<path d="M118.289 39.9319H131.727M93.3318 55.2896H131.727M93.3318 69.9044H131.727M93.3318 84.5194H131.727M105.212 39.9316H105.246M93.693 39.9316H93.7275" stroke="#E1E4E5" stroke-width="6" stroke-linecap="round" stroke-linejoin="round"/>
<path d="M112.668 140.705C126.085 140.705 136.962 129.828 136.962 116.411C136.962 102.994 126.085 92.1172 112.668 92.1172C99.251 92.1172 88.3743 102.994 88.3743 116.411C88.3743 129.828 99.251 140.705 112.668 140.705Z" fill="#97CB66"/>
<path d="M114.38 109.263C114.38 108.3 113.599 107.52 112.637 107.52C111.674 107.52 110.893 108.3 110.893 109.263V123.746C110.893 124.709 111.674 125.49 112.637 125.49C113.599 125.49 114.38 124.709 114.38 123.746V109.263Z" fill="white"/>
<path d="M119.878 118.248C120.841 118.248 121.622 117.468 121.622 116.505C121.622 115.542 120.841 114.762 119.878 114.762H105.395C104.432 114.762 103.652 115.542 103.652 116.505C103.652 117.468 104.432 118.248 105.395 118.248H119.878Z" fill="white"/>
</g>
<defs>
<linearGradient id="paint0_linear_169_8372" x1="138.644" y1="78.5563" x2="115.065" y2="-27.3965" gradientUnits="userSpaceOnUse">
<stop stop-color="white"/>
<stop offset="1" stop-color="#EEEEEE"/>
</linearGradient>
<linearGradient id="paint1_linear_169_8372" x1="61.4103" y1="56.5895" x2="30.2913" y2="27.676" gradientUnits="userSpaceOnUse">
<stop stop-color="white"/>
<stop offset="1" stop-color="#EEEEEE"/>
</linearGradient>
<clipPath id="clip0_169_8372">
<rect width="225" height="150" fill="white" transform="translate(0 0.5)"/>
</clipPath>
</defs>
</svg>
