<svg width="24" height="24" viewBox="0 0 24 24" fill="none" xmlns="http://www.w3.org/2000/svg">
<g clip-path="url(#clip0_290_405)">
<path d="M12.0009 23.7192C18.4735 23.7192 23.7206 18.4722 23.7206 11.9996C23.7206 5.52698 18.4735 0.279907 12.0009 0.279907C5.52832 0.279907 0.28125 5.52698 0.28125 11.9996C0.28125 18.4722 5.52832 23.7192 12.0009 23.7192Z" fill="#FCE819"/>
<path d="M16.2522 6.53931L15.0818 8.54709C16.0714 9.41777 16.7232 10.6072 16.7232 12.0298C16.7232 14.6609 14.5917 16.7923 11.9606 16.7923C9.32959 16.7923 7.11722 14.6609 7.11722 12.0298C7.11722 11.673 7.14576 11.3685 7.22189 11.0354L5 12.3343C5 15.8788 7.9641 19 11.9606 19C15.8097 19 18.9308 15.8788 18.9308 12.0298C18.9308 9.79839 17.8841 7.81439 16.2522 6.53931Z" fill="#4A4A4A"/>
<path d="M12.876 7.38147L14.056 5.35465C14.056 5.35465 13.0378 4.76945 11.0919 5.10249L9.60744 7.69549C9.60268 7.70025 10.8492 6.87715 12.876 7.38147Z" fill="#4A4A4A"/>
</g>
<defs>
<clipPath id="clip0_290_405">
<rect width="24" height="24" fill="white"/>
</clipPath>
</defs>
</svg>
