<svg width="34" height="34" viewBox="0 0 34 34" fill="none" xmlns="http://www.w3.org/2000/svg">
<circle cx="17" cy="17" r="16.5" stroke="#E6E6E6"/>
<path d="M10 17C10 17.2093 10.0735 17.3875 10.2206 17.5345C10.3733 17.6816 10.5515 17.7552 10.7552 17.7552H16.2448V23.2448C16.2448 23.4485 16.3184 23.6238 16.4655 23.7709C16.6125 23.9236 16.7907 24 17 24C17.2093 24 17.3875 23.9236 17.5345 23.7709C17.6873 23.6238 17.7636 23.4485 17.7636 23.2448V17.7552H23.2448C23.4485 17.7552 23.6238 17.6816 23.7709 17.5345C23.9236 17.3875 24 17.2093 24 17C24 16.7907 23.9236 16.6125 23.7709 16.4655C23.6238 16.3127 23.4485 16.2364 23.2448 16.2364H17.7636V10.7552C17.7636 10.5515 17.6873 10.3762 17.5345 10.2291C17.3875 10.0764 17.2093 10 17 10C16.7907 10 16.6125 10.0764 16.4655 10.2291C16.3184 10.3762 16.2448 10.5515 16.2448 10.7552V16.2364H10.7552C10.5515 16.2364 10.3733 16.3127 10.2206 16.4655C10.0735 16.6125 10 16.7907 10 17Z" fill="black"/>
</svg>
