<svg width="32" height="32" viewBox="0 0 32 32" fill="none" xmlns="http://www.w3.org/2000/svg">
<path d="M11.8399 6.13297C10.7732 1.51964 3.82654 1.5063 2.75987 6.13297C2.1332 8.83964 3.8532 11.133 5.34654 12.5596C6.43987 13.5863 8.15987 13.5863 9.2532 12.5596C10.7465 11.133 12.4532 8.83964 11.8399 6.13297ZM7.34654 8.2663C6.6132 8.2663 6.0132 7.6663 6.0132 6.93297C6.0132 6.19964 6.59987 5.59964 7.3332 5.59964H7.34654C8.0932 5.59964 8.67987 6.19964 8.67987 6.93297C8.67987 7.6663 8.0932 8.2663 7.34654 8.2663Z" fill="white"/>
<path d="M29.2133 22.133C28.1467 17.5196 21.1733 17.5063 20.0933 22.133C19.4667 24.8396 21.1867 27.133 22.6933 28.5596C23.7867 29.5863 25.52 29.5863 26.6133 28.5596C28.12 27.133 29.84 24.8396 29.2133 22.133ZM24.7067 24.2663C23.9733 24.2663 23.3733 23.6663 23.3733 22.933C23.3733 22.1996 23.96 21.5996 24.6933 21.5996H24.7067C25.44 21.5996 26.04 22.1996 26.04 22.933C26.04 23.6663 25.44 24.2663 24.7067 24.2663Z" fill="white"/>
<path d="M15.9998 26.3337H12.4264C10.8798 26.3337 9.53309 25.4003 8.99976 23.9603C8.45309 22.5203 8.85309 20.9337 10.0131 19.907L20.6664 10.587C21.3064 10.027 21.3198 9.26699 21.1331 8.74699C20.9331 8.22699 20.4264 7.66699 19.5731 7.66699H15.9998C15.4531 7.66699 14.9998 7.21366 14.9998 6.66699C14.9998 6.12033 15.4531 5.66699 15.9998 5.66699H19.5731C21.1198 5.66699 22.4664 6.60033 22.9998 8.04033C23.5464 9.48033 23.1464 11.067 21.9864 12.0937L11.3331 21.4137C10.6931 21.9737 10.6798 22.7337 10.8664 23.2537C11.0664 23.7737 11.5731 24.3337 12.4264 24.3337H15.9998C16.5464 24.3337 16.9998 24.787 16.9998 25.3337C16.9998 25.8803 16.5464 26.3337 15.9998 26.3337Z" fill="white"/>
</svg>
